<?xml version="1.0" encoding="UTF-8"?>
<svg width="258px" height="32px" viewBox="0 0 258 32" version="1.1" xmlns="http://www.w3.org/2000/svg" xmlns:xlink="http://www.w3.org/1999/xlink">
    <!-- Generator: Sketch 51 (57462) - http://www.bohemiancoding.com/sketch -->
    <title>logo</title>
    <desc>Created with Sketch.</desc>
    <defs></defs>
    <g id="Page-1" stroke="none" stroke-width="1" fill="none" fill-rule="evenodd">
        <g id="logo" transform="translate(-1.000000, 0.000000)" fill="#CC002E">
            <g id="Group-2" transform="translate(0.000000, 1.000000)">
                <path d="M24.0779863,3.26645309 C24.0779863,2.56897025 23.1718078,2.22114416 21.3594508,2.22114416 C20.5869108,2.22114416 19.7210069,2.46462243 18.7599085,2.95340961 C17.8006407,3.44036613 16.9072769,4.11954233 16.0816476,4.98727689 C15.2560183,5.85684211 14.5145995,6.8380778 13.8610526,7.93281465 C12.4349657,10.29254 11.7210069,12.714508 11.7210069,15.1968879 C11.7210069,17.6810984 12.2171167,19.6142792 13.2093364,20.9982609 C14.2015561,22.3804119 15.7063616,23.0724027 17.7219222,23.0724027 C17.8940046,23.0724027 18.022151,23.0669108 18.1081922,23.0577574 C18.5383982,21.9630206 18.9264989,20.8261785 19.2743249,19.6454005 C19.6239817,18.4664531 19.7978947,17.7451716 19.7978947,17.4815561 C19.7978947,17.2197712 19.6477803,17.0019222 19.3475515,16.8298398 C19.0473227,16.6577574 18.7141419,16.540595 18.3498398,16.4765217 C17.3850801,16.3044394 16.9017849,15.9877346 16.9017849,15.5264073 C16.9017849,14.9259497 17.6743249,14.4646224 19.219405,14.1424256 C20.7626545,13.8220595 22.6061327,13.6609611 24.7461785,13.6609611 C26.8862243,13.6609611 28.2994966,13.7598169 28.9859954,13.9575286 C29.6724943,14.1570709 30.0148284,14.4810984 30.0148284,14.9314416 C30.0148284,15.2426545 29.8281007,15.7680549 29.4528146,16.507643 C29.0756979,17.2490618 28.460595,19.0394508 27.6020137,21.8824714 C26.7434325,24.725492 26.1210069,26.4408238 25.7347368,27.0302975 C25.1031579,28.0078719 24.1402288,28.7401373 22.8477803,29.2270938 C21.5553318,29.715881 20.0395423,29.9593593 18.3022426,29.9593593 C15.1150572,29.9593593 13.5223799,29.6206865 13.5223799,28.9451716 C13.5223799,28.4948284 13.9251259,28.0389931 14.7306178,27.5776659 C15.6514416,27.0412815 16.3434325,26.4463158 16.8047597,25.7927689 C16.9988101,25.5016934 17.1855378,25.1703432 17.3686041,24.7950572 C15.8985812,25.1703432 14.1942334,25.3570709 12.2518993,25.3570709 C10.3095652,25.3570709 8.61254005,25.1465446 7.15899314,24.7218307 C5.70544622,24.2989474 4.55029748,23.6893364 3.69171625,22.896659 C2.02947368,21.3625629 1.1983524,19.2810984 1.1983524,16.6522654 C1.1983524,15.109016 1.50407323,13.5968879 2.11551487,12.115881 C2.72695652,10.6348741 3.55258581,9.29482838 4.59240275,8.09391304 C5.63405034,6.89116705 6.84594966,5.7817849 8.22993135,4.76210526 C9.61391304,3.74425629 11.0729519,2.88567506 12.6052174,2.18819222 C15.856476,0.729153318 19.0692906,0.000549199085 22.2436613,0.000549199085 C25.418032,0.000549199085 27.7869108,0.478352403 29.3466362,1.43212815 C30.9081922,2.38773455 31.6880549,3.72228833 31.6880549,5.4394508 C31.6880549,6.43533181 31.2432037,7.36897025 30.3535011,8.23853547 C29.3448055,9.22526316 27.7631121,9.71771167 25.6065904,9.71771167 C24.8779863,9.71771167 24.2555606,9.61702517 23.7393135,9.41199085 C22.7635698,9.02572082 22.2766133,8.47469108 22.2766133,7.75524027 C22.2766133,7.59414188 22.5768421,6.90215103 23.1772998,5.67926773 C23.7777574,4.45638444 24.0779863,3.65272311 24.0779863,3.26645309" id="Fill-1"></path>
                <path d="M42.7018764,5.71221968 C42.7018764,5.45409611 42.6249886,5.24540046 42.4693822,5.08430206 C42.3137757,4.92320366 42.1178947,4.84265446 41.8817391,4.84265446 C41.6455835,4.84265446 41.3929519,4.93235698 41.1256751,5.10810069 C40.8565675,5.28567506 40.5783066,5.55661327 40.2890618,5.92091533 C39.569611,6.79048055 39.2108009,7.99139588 39.2108009,9.52549199 C39.2108009,11.0595881 39.6227002,12.491167 40.4501602,13.8220595 C41.9513043,9.3589016 42.7018764,6.65684211 42.7018764,5.71221968 M39.7728146,15.8010069 C37.1677803,14.1918535 35.8643478,12.110389 35.8643478,9.55844394 C35.8643478,8.41977117 36.1481007,7.35798627 36.7156064,6.37125858 C37.2849428,5.38453089 38.0355149,4.54791762 38.9691533,3.86141876 C39.9027918,3.17491991 40.9645767,2.58544622 42.154508,2.09116705 C44.5032494,1.12640732 46.981968,0.643112128 49.588833,0.643112128 C51.2071396,0.643112128 52.3128604,0.987276888 52.9023341,1.67377574 C53.4185812,2.28521739 53.6748741,3.08155606 53.6748741,4.06279176 C53.6748741,5.04402746 53.4423799,6.32183066 52.9755606,7.89254005 C52.5087414,9.46324943 51.7746453,11.6527231 50.7714416,14.4572998 C49.768238,17.2618764 49.0085126,19.4659954 48.4940961,21.0696568 C47.9796796,22.6733181 47.1741876,23.8431121 46.0812815,24.5772082 C44.9865446,25.313135 43.4616018,25.6792677 41.5027918,25.6792677 C39.5458124,25.6792677 37.7114874,25.4357895 35.9998169,24.9470023 C34.2899771,24.4600458 33.4350572,23.8998627 33.4350572,23.2664531 C33.4350572,22.7831579 33.7938673,22.504897 34.5114874,22.4298398 C35.5732723,22.3016934 36.3439817,22.0655378 36.8217849,21.721373 C37.2977574,21.3790389 37.74627,20.7675973 38.1636613,19.8870481 C38.5828833,19.0083295 39.1192677,17.6463158 39.7728146,15.8010069" id="Fill-2"></path>
                <path d="M72.9418764,7.67505721 C72.2883295,8.72585812 71.2155606,11.62746 69.7235698,16.3798627 C70.0787185,16.4018307 70.604119,16.410984 71.3016018,16.410984 C73.4453089,16.410984 75.2558352,15.6768879 76.7313501,14.206865 C78.2050343,12.7386728 78.9427918,10.8292906 78.9427918,8.47871854 C78.9427918,5.04622426 76.8778032,3.33089245 72.7496568,3.33089245 C71.1185355,3.33089245 69.5441648,3.44805492 68.0265446,3.68421053 C66.5089245,3.92036613 65.3098398,4.1784897 64.4311213,4.45675057 C63.5505721,4.73684211 62.7414188,4.99313501 62,5.22929062 C61.2604119,5.46544622 60.7734554,5.5826087 60.5372998,5.5826087 C60.0009153,5.5826087 59.7318078,5.39038902 59.7318078,5.00411899 C59.7318078,4.61784897 60.0997712,4.22425629 60.8338673,3.8215103 C61.5697941,3.4187643 62.408238,3.02700229 63.3528604,2.64622426 C64.2956522,2.26544622 65.4654462,1.86636156 66.8604119,1.44897025 C70.0237986,0.482379863 73.4508009,0.000915331808 77.1414188,0.000915331808 C82.010984,0.000915331808 85.3263158,1.08283753 87.0855835,3.25034325 C88.0393593,4.4201373 88.5171625,5.82974828 88.5171625,7.48283753 C88.5171625,10.6132723 87.21373,13.2 84.606865,15.2375286 C82.38627,16.9748284 79.5011442,18.0805492 75.9514874,18.5510297 C74.9098398,18.6919908 73.7217391,18.7615561 72.3871854,18.7615561 C71.0508009,18.7615561 69.9432494,18.6700229 69.0645309,18.4869565 C68.6141876,19.9350114 68.2627002,21.0407323 68.0100686,21.8022883 C67.7574371,22.5638444 67.4773455,23.175286 67.1661327,23.6366133 C66.8549199,24.0979405 66.5254005,24.4622426 66.1757437,24.7295195 C65.8279176,24.998627 65.384897,25.2018307 64.8485126,25.3409611 C64.0009153,25.5661327 62.8732265,25.6796339 61.4617849,25.6796339 C60.0503432,25.6796339 58.7139588,25.5240275 57.4471396,25.2128146 C56.182151,24.9016018 55.175286,24.5208238 54.4302059,24.0704805 C53.6851259,23.6201373 53.3116705,23.180778 53.3116705,22.7505721 C53.3116705,22.5052632 53.4196796,22.3057208 53.6338673,22.1556064 C53.8480549,22.005492 54.0951945,21.9304348 54.3734554,21.9304348 C55.3601831,21.9304348 56.0924485,21.7729977 56.5702517,21.4562929 C57.0480549,21.1395881 57.5093822,20.5519451 57.9542334,19.6933638 C58.3990847,18.8366133 58.8439359,17.8352403 59.2887872,16.6929062 C59.7354691,15.5505721 60.1510297,14.4887872 60.5372998,13.5075515 C60.9235698,12.5263158 61.3629291,11.5267735 61.8553776,10.5070938 C62.9391304,8.27551487 64.220595,6.81098398 65.7016018,6.11350114 C66.419222,5.77116705 67.3583524,5.50572082 68.5171625,5.31716247 C69.6759725,5.13043478 70.5839817,5.03707094 71.2448513,5.03707094 C71.9038902,5.03707094 72.3322654,5.04439359 72.5318078,5.06086957 C72.7295195,5.07734554 72.9308924,5.11212815 73.1340961,5.16521739 C73.5423341,5.27322654 73.7455378,5.49839817 73.7455378,5.84073227 C73.7455378,6.07688787 73.7016018,6.29473684 73.6100686,6.49244851 C73.5185355,6.69016018 73.2951945,7.08558352 72.9418764,7.67505721" id="Fill-3"></path>
                <path d="M104.582517,7.86819222 C102.801281,9.31624714 101.44476,11.4672769 100.511121,14.3194508 C100.018673,15.8645309 99.7715332,17.4315789 99.7715332,19.0187643 C99.7715332,21.795881 100.677712,23.1853547 102.490069,23.1853547 C103.412723,23.1853547 104.36833,22.8045767 105.355057,22.0430206 C106.341785,21.2814645 107.229657,20.2929062 108.016842,19.0755149 C108.805858,17.8581236 109.455744,16.4118993 109.964668,14.7386728 C110.473593,13.0654462 110.728055,11.3922197 110.728055,9.71899314 C110.728055,7.35926773 110.310664,5.6805492 109.47405,4.68283753 C108.637437,3.68512586 107.231487,3.18535469 105.258032,3.18535469 C104.163295,3.18535469 102.984348,3.30434783 101.719359,3.54050343 C100.45254,3.77665904 99.3834325,4.03661327 98.5083753,4.32036613 C97.6351487,4.60411899 96.8479634,4.86407323 96.1523112,5.10022883 C95.4548284,5.33638444 95.0520824,5.45537757 94.9440732,5.45537757 C94.5486499,5.45537757 94.3491076,5.29427918 94.3491076,4.97208238 C94.3491076,4.71395881 94.6145538,4.37894737 95.1454462,3.96704805 C95.6763387,3.55331808 96.4140961,3.1194508 97.3587185,2.66361556 C98.3015103,2.20778032 99.3486499,1.7812357 100.496476,1.38398169 C103.167414,0.461327231 105.777941,0 108.331716,0 C113.234233,0 116.697849,1.42608696 118.726224,4.28009153 C119.916156,5.96430206 120.511121,8.04576659 120.511121,10.5226545 C120.511121,12.4009153 120.183432,14.1620137 119.529886,15.8077803 C118.876339,17.4553776 117.964668,18.8942792 116.794874,20.1281465 C115.62508,21.3620137 114.252082,22.4237986 112.675881,23.3153318 C109.490526,25.1057208 105.880458,26.0009153 101.847506,26.0009153 C93.9518535,26.0009153 90.0049428,23.3043478 90.0049428,17.9075515 C90.0049428,16.3954233 90.3326316,14.9455378 90.9861785,13.5560641 C91.6415561,12.1665904 92.501968,10.9601831 93.5692449,9.93501144 C94.6365217,8.91167048 95.8356064,8.01281465 97.1646682,7.2402746 C99.8685584,5.69519451 102.581602,4.92448513 105.30746,4.92448513 C105.735835,4.92448513 106.043387,5.001373 106.231945,5.15697941 C106.418673,5.31258581 106.513867,5.47002288 106.513867,5.63112128 C106.513867,5.79221968 106.490069,5.92951945 106.440641,6.04118993 C106.393043,6.15469108 106.297849,6.28649886 106.158719,6.43661327 C106.019588,6.58672769 105.896934,6.71487414 105.788924,6.8228833 C105.521648,7.0590389 105.118902,7.40686499 104.582517,7.86819222" id="Fill-4"></path>
            </g>
            <g id="Group" transform="translate(134.000000, 0.000000)">
                <path d="M19.5937757,21.6638902 C19.9580778,21.5357437 20.3333638,21.588833 20.7196339,21.8249886 C21.7502975,22.361373 21.9644851,23.0259039 21.3640275,23.8204119 C21.1919451,24.162746 20.9338215,24.2597712 20.5914874,24.1096568 C20.3553318,23.9595423 20.1301602,23.6062243 19.9159725,23.0478719 C19.7658581,22.769611 19.5718078,22.4895195 19.3356522,22.2112586 C19.2514416,22.0611442 19.3356522,21.8780778 19.5937757,21.6638902 Z M16.7617391,22.9508467 C16.9338215,22.2423799 17.4061327,22.1892906 18.1786728,22.7897483 C18.5850801,23.1760183 18.7461785,23.6062243 18.6601373,24.0767048 C18.6821053,24.3989016 18.5319908,24.6460412 18.2097941,24.8181236 C17.5013272,24.581968 17.0198627,23.9595423 16.7617391,22.9508467 Z M19.5937757,6.31377574 C18.6491533,7.04421053 17.7924027,7.47258581 17.0198627,7.60073227 C16.3974371,7.66663616 16.0862243,7.98700229 16.0862243,8.56732265 C16.0862243,9.18974828 16.3535011,9.3398627 16.8898856,9.0176659 C17.5763844,8.50324943 18.1878261,8.37327231 18.7242105,8.63139588 C18.9182609,8.7815103 18.9603661,8.93162471 18.8541876,9.08173913 C17.9956064,9.76823799 17.2761556,10.1966133 16.6976659,10.3686957 C15.9251259,10.7329977 15.6779863,11.2693822 15.9580778,11.977849 C16.2784439,12.2780778 16.7397712,12.2030206 17.3420595,11.7526773 L17.9846224,11.4304805 C18.4569336,11.3664073 18.8432037,11.0551945 19.1434325,10.4968421 C20.022151,9.05977117 20.3974371,7.70874142 20.2692906,6.44375286 C20.1631121,6.18562929 19.9361098,6.14169336 19.5937757,6.31377574 Z M13.834508,23.7563387 C14.0486957,23.1760183 14.4020137,23.0368879 14.8962929,23.3371167 C16.033135,24.0236156 16.1942334,24.8821968 15.3777574,25.9110297 C15.249611,25.9970709 14.9805034,25.7499314 14.5740961,25.1714416 L13.834508,23.7563387 Z M17.5013272,2.16366133 C18.0175744,1.34718535 18.4880549,1.18608696 18.9182609,1.68036613 C20.033135,2.81720824 19.8189474,3.70691076 18.2738673,4.35130435 C17.7173455,4.67350114 17.5013272,5.00485126 17.6313043,5.34901602 C18.1036156,5.5210984 18.5850801,5.48814645 19.0793593,5.25199085 C19.5297025,5.23002288 19.9361098,5.04878719 20.3022426,4.70462243 C20.5805034,4.23414188 21.0308467,4.23414188 21.6532723,4.70462243 C23.048238,5.71331808 23.2404577,7.161373 22.231762,9.04878719 C21.611167,9.92933638 21.2560183,10.6378032 21.1699771,11.1741876 C21.1919451,11.558627 20.9667735,11.8606865 20.4944622,12.0748741 L17.9205492,13.3929519 C17.3621968,13.6730435 16.8898856,13.7481007 16.5054462,13.6181236 C16.0752403,13.4478719 15.8281007,13.6730435 15.7640275,14.2954691 C15.657849,15.6245309 16.2033867,15.9796796 17.4061327,15.357254 C19.1214645,14.6268192 20.4084211,14.4236156 21.2670023,14.7458124 C21.6953776,15.0021053 21.9113959,15.3023341 21.9113959,15.6464989 C21.9535011,15.9686957 21.7393135,16.2048513 21.2670023,16.3549657 C19.5297025,16.4611442 17.9205492,16.8364302 16.4395423,17.4808238 C16.1393135,17.6950114 15.9782151,17.953135 15.9580778,18.2533638 C16.0642563,19.0259039 16.4834783,19.2821968 17.2120824,19.0259039 C18.9713501,18.4455835 20.6134554,18.1233867 22.1365675,18.0593135 C22.3928604,18.0172082 22.6070481,17.942151 22.7791304,17.8341419 C23.5095652,16.6753318 24.3242105,16.5911213 25.224897,17.577849 C25.5049886,17.8780778 25.7393135,18.3064531 25.9333638,18.8648055 C26.1695195,21.7169794 25.6001831,24.3989016 24.2271854,26.9087414 C23.6267277,28.3458124 22.7370252,29.1403204 21.5562471,29.2904348 C21.1278719,29.2904348 20.6994966,29.33254 20.2692906,29.4185812 C19.0244394,30.0410069 18.3489245,29.6345995 18.242746,28.1956979 C18.2848513,27.9595423 18.2628833,27.6281922 18.1786728,27.1979863 C17.9626545,26.8135469 18.1786728,26.758627 18.8212357,27.0387185 C19.7438902,27.2730435 20.4944622,27.1229291 21.0747826,26.5865446 C21.5031579,26.1581693 21.7704348,25.7297941 21.8784439,25.2995881 C22.7370252,23.3041648 23.0903432,21.2666362 22.9402288,19.1851716 C22.7681465,18.9508467 22.5228375,18.8959268 22.2006407,19.0259039 C21.0839359,19.73254 20.0972082,20.140778 19.2404577,20.2487872 C17.823524,20.3989016 16.5365675,20.8492449 15.3777574,21.5998169 C14.7351945,21.8140046 14.2189474,21.4277346 13.834508,20.4410069 C13.5544165,18.0391762 13.4573913,15.0021053 13.5434325,11.3334554 C13.6075057,9.16778032 13.8436613,7.3975286 14.2518993,6.02453089 C14.4880549,5.01583524 15.1214645,4.3183524 16.1502975,3.93208238 C16.5585355,3.76183066 17.0088787,3.17052632 17.5013272,2.16366133 Z M10.3910297,23.4341419 C10.9914874,22.5114874 11.5168879,22.5426087 11.9672311,23.531167 C13.1480092,25.0744165 13.6075057,26.361373 13.3512128,27.3920366 C13.2010984,27.7783066 13.0070481,27.9924943 12.7708924,28.0345995 C11.6999542,27.6922654 11.0555606,26.8336842 10.841373,25.4606865 C10.3470938,24.6460412 10.1969794,23.9705263 10.3910297,23.4341419 Z M9.29629291,7.31148741 C10.1329062,6.8391762 10.8944622,6.89409611 11.5809611,7.47258581 C11.9251259,7.66663616 12.0953776,8.07304348 12.0953776,8.69546911 C12.0532723,9.40393593 11.7530435,10.0794508 11.1946911,10.7220137 C10.5521281,11.2162929 10.1658581,11.7197254 10.035881,12.2359725 C10.0798169,13.9513043 10.0798169,15.6684668 10.035881,17.3837986 C10.2940046,17.5979863 10.6802746,17.5229291 11.1946911,17.158627 C11.859222,16.6442105 12.2033867,16.4300229 12.2253547,16.5142334 C11.9891991,18.2094279 10.9365675,20.0016476 9.07112128,21.8890618 C8.17043478,22.9398627 7.35395881,23.5622883 6.62535469,23.7563387 C4.97409611,23.5403204 4.65189931,22.6396339 5.66059497,21.0524485 C5.93885584,20.7101144 6.34709382,20.3238444 6.88347826,19.8936384 C7.16173913,19.5073684 7.2789016,19.0789931 7.23679634,18.6066819 C7.34480549,16.8053089 7.40887872,15.0021053 7.42901602,13.2007323 C7.36494279,12.7064531 7.05372998,12.353135 6.49720824,12.1389474 C6.15304348,11.944897 5.73565217,11.580595 5.241373,11.0442105 C4.53290618,10.3577117 4.60796339,9.76823799 5.46654462,9.27395881 C6.68942792,8.52338673 7.96540046,7.86983982 9.29629291,7.31148741 Z M1.41162471,4.19020595 C2.46425629,3.80393593 3.6010984,4.157254 4.82398169,5.25199085 C5.57455378,6.11057208 5.73565217,6.96915332 5.30544622,7.82590389 C5.15533181,8.32018307 4.79102975,8.51240275 4.21254005,8.40622426 C3.7823341,8.2780778 3.40704805,7.94489703 3.08485126,7.40851259 C2.69858124,6.95816934 2.27020595,6.54993135 1.79789474,6.18562929 C0.811167048,5.34901602 0.683020595,4.68448513 1.41162471,4.19020595 Z M3.05372998,20.5050801 C3.59011442,19.6684668 3.75121281,19.765492 3.53702517,20.7943249 C3.17089245,22.6616018 3.24594966,24.0236156 3.7621968,24.8821968 C4.70498856,26.1050801 4.67386728,27.166865 3.66517162,28.0675515 C3.06471396,28.6039359 2.42032037,28.4648055 1.73382151,27.6501602 C1.241373,27.0057666 0.919176201,25.9329977 0.769061785,24.4318535 C0.661052632,23.6812815 0.90819222,23.0149199 1.50864989,22.4364302 C2.06700229,21.7920366 2.58141876,21.1494737 3.05372998,20.5050801 Z M0.28576659,13.2648055 C0.56402746,12.9865446 1.1004119,12.9645767 1.89491991,13.2007323 C3.7823341,13.779222 4.35167048,14.7989016 3.6010984,16.2579405 C3.02077803,16.9865446 2.3983524,16.8162929 1.73382151,15.743524 C1.30544622,15.3133181 0.875240275,14.970984 0.446864989,14.7128604 C-0.0895194508,14.2625172 -0.142608696,13.779222 0.28576659,13.2648055 Z" id="Fill-5"></path>
                <path d="M50.228833,11.4630664 C49.0919908,11.6131808 47.8270023,12.0324027 46.4320366,12.7189016 C45.9176201,12.9971625 45.6155606,13.4584897 45.5313501,14.1010526 C45.5954233,14.9376659 46.217849,14.9706178 47.3967963,14.1980778 C48.1052632,14.0058581 48.6837529,14.1230206 49.1340961,14.5513959 C49.2,15.3239359 48.7167048,15.8401831 47.6860412,16.096476 C47.2576659,16.2905263 46.8292906,16.4296568 46.3990847,16.5156979 C45.5203661,16.6658124 45.1981693,17.1582609 45.4343249,17.9948741 C45.6485126,18.703341 46.217849,18.7253089 47.1405034,18.060778 C48.1052632,17.65254 48.8558352,17.8026545 49.3922197,18.5111213 C49.0059497,19.3678719 48.1913043,19.884119 46.9464531,20.0543707 C45.787643,20.1404119 45.3592677,20.7097483 45.6594966,21.7605492 C45.809611,22.082746 46.0567506,22.1999085 46.3990847,22.1138673 C47.1716247,22.0278261 48.2443936,21.7715332 49.6173913,21.3413272 C50.5400458,21.1271396 50.990389,20.6548284 50.9684211,19.9262243 C51.1185355,16.7079176 51.0983982,14.1870938 50.9043478,12.3637529 C50.9263158,11.9353776 50.7011442,11.6351487 50.228833,11.4630664 M33.624714,6.31340961 C34.397254,5.8209611 35.3400458,6.02416476 36.4567506,6.92485126 C37.7217391,7.95551487 38.0549199,9.07038902 37.4526316,10.273135 C36.7459954,10.8516247 36.0375286,10.7545995 35.3290618,9.9820595 C34.8787185,9.46764302 34.4283753,9.09235698 33.978032,8.85620137 C33.1633867,8.49189931 32.7331808,8.24475973 32.6910755,8.11661327 C32.6910755,7.34407323 33.0022883,6.74361556 33.624714,6.31340961 M51.9661327,1.64887872 C52.4384439,1.11249428 53.0077803,1.05757437 53.6723112,1.48778032 C54.0366133,1.72393593 54.2306636,2.13034325 54.2508009,2.71066362 C54.2947368,3.18297483 54.005492,3.52530892 53.3830664,3.73949657 C52.5665904,3.99762014 52.0210526,4.26489703 51.7409611,4.54498856 C51.5487414,4.78114416 51.5157895,4.95139588 51.6439359,5.05940503 C51.773913,5.12347826 52.0741419,5.15643021 52.5464531,5.15643021 C52.9748284,5.09235698 53.4032037,5.05940503 53.8334096,5.05940503 C54.8622426,4.93125858 55.6036613,4.98434783 56.0540046,5.22050343 C56.6324943,5.56283753 56.9546911,5.94910755 57.0187643,6.3793135 C57.1688787,7.21592677 56.8155606,7.71935927 55.9569794,7.89144165 C55.5487414,7.97748284 55.0874142,7.96649886 54.5729977,7.8584897 L50.4540046,7.8584897 C49.809611,7.81638444 49.3922197,8.11661327 49.2,8.7591762 C49.1340961,9.16741419 48.8668192,9.48961098 48.394508,9.72576659 C47.8361556,10.1980778 47.5578947,10.4873227 47.5578947,10.5935011 C47.98627,10.8095195 48.6727689,10.7655835 49.6173913,10.4653547 C50.0457666,10.4653547 50.4759725,10.3481922 50.9043478,10.1120366 C52.5775744,9.83194508 53.6613272,10.9266819 54.1556064,13.3944165 L54.3148741,20.5376659 C54.5949657,21.5683295 54.1556064,22.6392677 52.9967963,23.7559725 C51.9881007,25.0209611 51.0654462,25.0008238 50.228833,23.6918993 C49.7784897,23.2616934 49.2421053,23.1335469 48.6196796,23.3056293 L46.3679634,23.8529977 C45.9816934,23.9591762 45.6375286,24.1953318 45.3372998,24.5596339 C44.8009153,24.9257666 44.5446224,25.1600915 44.5647597,25.2681007 C44.628833,25.3962471 44.9839817,25.5353776 45.6265446,25.6873227 C48.5446224,26.0296568 51.8910755,26.2017391 55.6677346,26.2017391 C56.5244851,26.2658124 57.3830664,26.3738215 58.2416476,26.5239359 C59.1423341,26.7582609 59.2924485,27.0493364 58.6919908,27.3916705 C57.7693364,27.671762 56.9858124,28.0891533 56.3432494,28.6475057 C55.7629291,29.3541419 55.1423341,29.7202746 54.4759725,29.7404119 C49.0700229,29.870389 43.2356979,28.7976201 36.971167,26.5239359 C36.3908467,26.48 35.8654462,26.5330892 35.393135,26.6832037 C34.5144165,27.1774828 33.7638444,27.4246224 33.1414188,27.4246224 C32.7771167,27.4246224 32.4970252,27.2104348 32.3048055,26.7802288 C31.7684211,25.5793135 32.3469108,24.8177574 34.0421053,24.4955606 C34.8146453,24.4955606 35.5542334,23.8529977 36.2627002,22.5642105 C36.5208238,22.0497941 36.573913,21.6214188 36.4237986,21.277254 C35.6951945,20.3344622 35.3620137,19.0475057 35.426087,17.4163844 C35.0837529,17.1161556 34.7066362,17.1692449 34.3002288,17.5774828 C33.3336384,18.2420137 32.7130435,17.9637529 32.4329519,16.7408696 C32.4549199,16.5266819 32.6581236,16.3216476 33.0443936,16.1294279 L35.6201373,15.0035698 C36.9070938,14.2090618 37.7748284,14.2310297 38.2251716,15.067643 C38.397254,15.2598627 38.397254,15.6351487 38.2251716,16.1935011 C37.6686499,17.1381236 37.3775744,17.9948741 37.3574371,18.7674142 C37.4215103,19.3257666 37.6686499,19.7230206 38.0970252,19.9591762 C39.1057208,20.1092906 39.3949657,20.6877803 38.9665904,21.696476 C38.8366133,21.9967048 38.5473684,22.3079176 38.0970252,22.6301144 C37.5185355,22.9303432 37.3244851,23.2836613 37.5185355,23.6918993 C37.7546911,23.884119 38.2160183,24.0452174 38.9025172,24.1733638 C39.7592677,24.3674142 40.617849,24.5925858 41.4764302,24.8488787 L43.6,25.3321739 C43.8782609,25.3321739 43.98627,25.2040275 43.9221968,24.9459039 C43.0636156,23.7230206 42.6883295,22.4250801 42.794508,21.0520824 L42.7633867,14.8424714 C42.82746,14.0699314 43.0306636,13.2113501 43.3748284,12.2667277 C43.9331808,11.1097483 44.6727689,10.4653547 45.5954233,10.3372082 C46.3679634,10.4232494 46.8933638,9.90700229 47.1716247,8.79212815 C47.1716247,8.42782609 46.9135011,8.28869565 46.3990847,8.37473684 C45.1560641,8.5028833 43.8672769,8.80311213 42.5382151,9.27542334 C41.5716247,9.87588101 40.6508009,9.58663616 39.7702517,8.40585812 C39.4919908,7.61135011 39.9093822,7.04384439 41.026087,6.69967963 C41.8828375,6.48549199 42.7414188,6.31340961 43.6,6.18526316 C44.4585812,5.99304348 44.5446224,5.45665904 43.8581236,4.57610984 C43.6640732,4.23377574 43.5560641,3.80356979 43.5359268,3.28915332 C43.621968,2.38846682 44.0924485,2.08823799 44.9510297,2.38846682 C45.4654462,2.49647597 45.820595,2.81684211 46.0128146,3.35322654 C46.0988558,3.78343249 46.217849,4.21180778 46.3679634,4.64018307 C46.4521739,5.52073227 46.9244851,5.84292906 47.7830664,5.60677346 C48.7478261,5.67084668 49.4562929,5.44567506 49.9066362,4.93125858 C50.5510297,3.83652174 51.2375286,2.7417849 51.9661327,1.64887872" id="Fill-6"></path>
                <path d="M86.2700229,7.05446224 C85.5414188,7.01235698 84.821968,7.19359268 84.1135011,7.60183066 C82.9345538,8.07414188 82.5702517,8.94187643 83.020595,10.2086957 C83.0627002,10.6590389 83.2878719,10.9372998 83.6961098,11.0453089 C85.1551487,11.0874142 86.1528604,10.1537757 86.6892449,8.24439359 C86.8814645,7.70800915 86.7423341,7.31258581 86.2700229,7.05446224 M80.8640732,4.51167048 C81.2924485,3.93318078 81.7318078,3.83615561 82.1839817,4.22242563 C82.590389,5.03707094 83.0956522,5.3812357 83.6961098,5.25308924 L86.9144165,4.51167048 C87.6649886,4.25537757 88.2434783,4.19130435 88.6517162,4.3194508 C89.208238,4.46956522 89.6384439,4.84485126 89.9386728,5.44530892 C90.5610984,6.32585812 90.4530892,7.17162471 89.616476,7.98810069 C88.9940503,8.88878719 88.8439359,9.78947368 89.1661327,10.6901602 C89.2521739,10.9702517 89.208238,11.2155606 89.0379863,11.4315789 C87.9853547,12.0741419 86.7313501,12.6434783 85.2723112,13.1359268 C84.3716247,13.2659039 83.7272311,13.6613272 83.3409611,14.3276888 C82.6764302,14.5418764 82.1089245,14.3276888 81.6366133,13.6832952 C80.6059497,11.2375286 80.1336384,9.01693364 80.2196796,7.0215103 C80.2196796,5.798627 80.4338673,4.96201373 80.8640732,4.51167048 M79.9633867,18.380778 C78.5263158,18.5748284 77.2173913,19.0251716 76.0366133,19.7336384 C75.4581236,20.0118993 75.178032,20.3871854 75.2,20.8594966 C75.0718535,21.3318078 75.210984,21.6851259 75.619222,21.9212815 C76.4759725,21.6851259 77.3675057,21.4929062 78.2901602,21.3427918 C79.3409611,21.2787185 80.005492,21.5130435 80.2837529,22.0494279 C80.1336384,22.9940503 79.5130435,23.5194508 78.4183066,23.62746 C77.5597254,23.6915332 76.7011442,23.7885584 75.8443936,23.9167048 C75.58627,23.9386728 75.4032037,23.991762 75.2970252,24.0778032 C75.0608696,24.4 75.0077803,24.8613272 75.1359268,25.4617849 C75.3080092,26.212357 75.8645309,26.4155606 76.8091533,26.0732265 C78.0320366,25.9011442 79.2659039,25.826087 80.5107551,25.8480549 C81.4974828,25.9542334 81.8837529,25.5569794 81.6677346,24.6562929 L81.6677346,20.0228833 C81.6475973,18.5638444 81.0782609,18.016476 79.9633867,18.380778 M74.9107551,13.1359268 C75.5533181,12.2993135 76.626087,12.2791762 78.1290618,13.0718535 C79.1578947,13.7583524 79.4160183,14.5729977 78.9016018,15.5176201 C78.7514874,15.8398169 78.4713959,16.0320366 78.0649886,16.0961098 C77.6347826,16.1620137 77.1734554,15.8819222 76.6810069,15.2594966 C76.2508009,14.8732265 75.8224256,14.5638444 75.3940503,14.3276888 C74.8778032,14.0915332 74.7167048,13.6942792 74.9107551,13.1359268 M81.2503432,16.579405 C82.1510297,15.7867277 83.020595,16.0649886 83.8572082,17.4160183 C84.5638444,18.9171625 84.9299771,20.7203661 84.9501144,22.821968 C85.0141876,24.4750572 84.9080092,25.7400458 84.6297483,26.620595 C83.6631579,28.6800915 82.2681922,29.8919908 80.4448513,30.2562929 C80.1446224,30.1482838 79.983524,29.9121281 79.9633867,29.5478261 C79.597254,28.1528604 78.7185355,27.6713959 77.3235698,28.0997712 C76.5308924,28.0997712 75.8334096,28.3139588 75.2329519,28.7441648 C74.7386728,29.17254 74.3963387,29.3556064 74.2022883,29.2897025 C73.6018307,28.8832952 73.1734554,28.0466819 72.9153318,26.7798627 C72.5070938,25.0864989 72.4430206,23.1881007 72.7231121,21.0846682 C72.7011442,19.3473684 73.1514874,17.9102975 74.0741419,16.7734554 C74.2242563,16.7295195 74.42746,16.8155606 74.6855835,17.0297483 C75.1139588,17.3940503 75.58627,17.5130435 76.1006865,17.384897 C77.387643,17.2347826 78.6764302,17.1267735 79.9633867,17.0627002 C80.391762,17.1487414 80.8201373,16.987643 81.2503432,16.579405 M69.7299771,3.22471396 C70.9528604,1.37940503 71.9707094,1.26224256 72.7871854,2.87139588 C72.9153318,4.00823799 73.4736842,4.33043478 74.4604119,3.83615561 C75.9395881,3.42974828 77.0874142,3.36384439 77.9038902,3.64393593 C78.8045767,4.54462243 78.601373,5.32814645 77.2924485,5.99267735 C76.8622426,6.03478261 76.4338673,6.10983982 76.005492,6.21784897 C75.0389016,6.34599542 74.7167048,6.78718535 75.0389016,7.53775744 C74.9967963,8.16018307 75.2530892,8.4805492 75.8114416,8.50251716 C76.4558352,8.35240275 77.0983982,8.24439359 77.7427918,8.18032037 C78.6215103,8.16018307 79.1267735,8.61052632 79.2549199,9.53318078 C79.0828375,10.2398169 78.6215103,10.6901602 77.8709382,10.8842105 C77.0562929,11.1624714 76.1977117,11.3565217 75.2970252,11.4627002 C74.416476,11.3345538 73.795881,11.9350114 73.4297483,13.2659039 C72.4430206,15.2594966 70.780778,16.6654462 68.4430206,17.4800915 C67.6924485,17.8022883 67.5514874,17.5881007 68.0237986,16.8375286 C68.3679634,16.4073227 68.7542334,15.9789474 69.1826087,15.5505721 C70.1473684,14.6480549 70.7697941,13.6723112 71.0498856,12.6215103 C71.0279176,12.3633867 70.6727689,12.2132723 69.98627,12.171167 C68.979405,12.4073227 68.1427918,12.4384439 67.4764302,12.2681922 C66.7697941,11.7519451 66.4146453,11.2485126 66.4146453,10.7542334 C66.4366133,9.98352403 66.9308924,9.56430206 67.8956522,9.50022883 C68.7963387,9.5221968 69.7720824,9.45629291 70.8228833,9.30617849 C71.3812357,9.32814645 71.7675057,9.09199085 71.9816934,8.59954233 C72.217849,7.93318078 72.2929062,7.45171625 72.206865,7.15148741 C72.0567506,6.93729977 71.7894737,6.86224256 71.4032037,6.92631579 L70.4384439,6.76521739 C70.008238,6.93729977 69.3656751,7.36567506 68.5070938,8.05217391 C67.7345538,8.37437071 67.3482838,8.4604119 67.3482838,8.31029748 C67.6265446,6.70114416 68.4210526,5.00594966 69.7299771,3.22471396" id="Fill-7"></path>
                <path d="M119.777114,8.72289909 C118.366045,8.76829014 117.5569,9.37021482 117.34968,10.5266996 C117.20956,11.0121864 117.440462,11.312162 118.042387,11.4285999 C118.435118,11.4522822 118.863373,11.4167587 119.325177,11.3240031 C120.343516,11.0240275 120.77177,10.2602739 120.609941,9.03471581 C120.42443,8.78013128 120.146163,8.67750805 119.777114,8.72289909 Z M118.910737,0.327529943 C119.90342,-0.0652012417 120.481662,0.327529943 120.643491,1.50769702 L120.367198,2.37407386 C120.412589,2.79048732 120.736247,2.84771951 121.338171,2.54774393 C121.709194,2.22408607 122.182839,2.40959728 122.761082,3.10230404 C123.29196,3.68054644 123.372874,4.2133978 123.003825,4.69888459 C122.401901,5.25344471 121.569074,5.57710257 120.505344,5.66985817 L117.973314,5.66985817 C117.76412,5.7389315 117.430595,5.94812499 116.966817,6.29546514 C116.064916,6.87370753 115.857697,6.7454285 116.343183,5.91260157 C116.528695,5.54355267 116.435939,5.22976242 116.064916,4.97715141 C115.857697,4.7916402 116.112281,4.53705566 116.82867,4.2133978 C117.637815,3.58779084 118.216057,2.46682946 118.563397,0.848540159 C118.677862,0.593955622 118.7943,0.42028555 118.910737,0.327529943 Z M120.783611,7.47365869 C121.5,6.89541629 122.123634,7.11645093 122.656485,8.13281556 C122.934752,8.50383798 122.934752,8.96564249 122.656485,9.52020261 C122.470974,9.75110486 122.35651,10.0056894 122.309145,10.2839562 C122.35651,11.0694186 122.344668,11.5095143 122.275595,11.6022699 C122.159157,11.6713433 121.871023,11.7404166 121.407245,11.8094899 L117.93779,12.3660236 C116.897743,13.2679238 116.193196,12.9659747 115.822173,11.4641233 C115.40576,10.0767362 115.543906,8.87288688 116.238587,7.85652226 C116.331342,7.80915769 116.505012,7.82099884 116.759597,7.89007216 C117.014181,8.02821881 117.430595,8.09926565 118.008837,8.09926565 L120.783611,7.47365869 Z M112.179049,18.5747286 C111.81,18.3892174 111.543574,18.4484231 111.381745,18.7483987 C111.28899,19.1194211 111.243598,19.5239934 111.243598,19.9621157 C111.381745,20.6804782 111.855391,20.8995394 112.664535,20.6212725 L114.8512,20.3094558 C115.429442,19.9404069 115.591271,19.4312378 115.336686,18.7839221 C115.105784,18.5056553 114.782126,18.4128997 114.365713,18.5056553 C113.901935,18.7128753 113.173704,18.7365576 112.179049,18.5747286 Z M114.815676,22.3915232 C114.399263,22.3224498 113.625641,22.3559997 112.492839,22.4961199 C111.798159,22.4961199 111.358063,22.5415109 111.174525,22.6342665 C110.850867,22.9579244 110.803503,23.386179 111.034405,23.9170569 C111.336354,24.1953237 111.740926,24.2407147 112.250095,24.057177 L114.746603,23.6743135 C115.37221,23.4197289 115.393918,22.9914743 114.815676,22.3915232 Z M112.005379,25.6873075 C110.896258,25.5254785 110.537077,25.9636008 110.931782,27.0056212 C111.184393,27.8384481 111.63633,28.1147414 112.283645,27.8384481 C113.44013,27.7220102 114.225593,27.5720225 114.642006,27.3865112 C115.243931,27.0174623 115.243931,26.4609287 114.642006,25.7208574 C113.763788,25.6754663 112.88557,25.6636252 112.005379,25.6873075 Z M110.896258,10.0767362 C109.554262,10.2602739 109.104299,11.0121864 109.542421,12.3305001 C109.658859,12.446938 110.063431,12.5041702 110.758112,12.5041702 C111.567256,12.2969502 112.005379,11.8213311 112.076425,11.0812597 C112.33101,9.99582178 111.936305,9.66032278 110.896258,10.0767362 Z M110.479845,1.92411049 C111.058087,1.50769702 111.590939,1.51953816 112.076425,1.95766039 C112.53823,2.25960949 112.735582,2.65234068 112.664535,3.13782747 C112.7119,3.90158108 113.278301,3.98249554 114.365713,3.38057086 C114.527542,3.38057086 114.480177,3.72791101 114.225593,4.42061777 C113.763788,5.09161578 113.254619,5.57710257 112.700059,5.87905167 C112.169181,6.36453846 112.052743,7.09276865 112.352719,8.06374223 C112.469157,8.20188888 112.723741,8.34200905 113.116472,8.4801557 C113.649324,8.75842252 113.99469,9.23206817 114.156519,9.90306617 L113.880226,11.2549298 C113.925617,12.0640745 113.601959,12.6304757 112.909252,12.9561071 L110.827185,13.5106672 C110.363407,13.6488139 109.982517,13.8343251 109.682541,14.0652273 C109.49703,14.3888852 109.335201,14.5743964 109.197055,14.6197874 C108.895105,14.7599076 108.59513,14.6316286 108.295154,14.2388974 C107.90045,13.6369727 107.612315,12.8041458 107.426804,11.7404166 C107.381413,10.4221029 107.612315,9.52020261 108.121484,9.03471581 C108.306995,8.89656917 108.502374,8.89656917 108.711568,9.03471581 C109.451639,9.40573824 110.294334,9.27745921 111.243598,8.65382577 C111.42911,8.28280334 111.336354,7.86638988 110.965332,7.40458537 C110.596283,6.85002525 109.958835,6.67635518 109.056934,6.88357515 C107.855059,7.13815969 107.207743,6.57175843 107.114987,5.18437138 C107.576792,4.86071352 108.42146,4.62981127 109.647018,4.4896911 C110.087114,4.25878884 110.248943,3.85421651 110.132505,3.27597412 C110.110796,2.76680504 110.22526,2.31684167 110.479845,1.92411049 Z M115.648503,13.7178872 C116.690523,13.4869849 117.5569,13.9033984 118.251581,14.9671276 C118.435118,15.8690278 119.00152,16.1354535 119.950784,15.7644311 C120.412589,15.6716755 120.876367,15.6144433 121.338171,15.590761 C122.240072,15.4072233 122.632803,15.7308812 122.518338,16.5637081 C122.425583,16.887366 122.009169,17.222865 121.269098,17.5682316 C120.574418,17.7300605 119.881711,17.8464984 119.187031,17.9155718 C118.677862,17.8918895 118.273289,18.0556919 117.973314,18.4010585 C117.787803,19.5121523 118.216057,19.9285658 119.256104,19.650299 C119.788955,19.5812256 120.319833,19.5457022 120.852685,19.5457022 C121.29278,19.7075311 121.407245,19.9621157 121.200025,20.3094558 C121.176342,20.7495516 120.702697,21.0613683 119.777114,21.2468795 L118.389727,21.6277695 C117.695047,21.836963 117.511509,22.2750853 117.835167,22.9460833 C117.927923,23.0388389 118.320654,23.0842299 119.013361,23.0842299 C119.86987,22.922401 120.493503,23.0388389 120.886235,23.4315701 C121.302648,23.8479835 121.026355,24.2762381 120.055381,24.7163339 C119.591603,24.8998716 119.129799,25.0399917 118.667994,25.1307738 C117.695047,25.270894 117.371389,25.7800631 117.695047,26.6582811 C117.880558,26.865501 118.320654,26.9819389 119.013361,27.0056212 C119.962625,26.8891833 120.909917,26.82011 121.859182,26.7964277 C122.437424,26.6582811 123.025534,26.8891833 123.627459,27.491108 C124.553041,28.7857394 124.148469,29.4902873 122.413742,29.6067252 C119.591603,29.1666295 116.088599,29.3876641 111.902755,30.2658821 C111.46266,30.3349554 111.022564,30.6467721 110.584442,31.2033058 C109.775297,31.9433771 109.28981,31.7105013 109.127981,30.5086255 C108.80235,28.4048494 108.721435,25.4327229 108.883264,21.5922461 C108.906947,21.037686 108.895105,20.702187 108.849714,20.5877226 C108.59513,20.4022114 108.259631,20.5068082 107.843217,20.8995394 C107.334048,21.4777818 106.83672,21.9178775 106.351234,22.2178531 C105.703918,22.7033399 105.449333,22.5987431 105.589454,21.9060364 C106.467671,19.3838733 108.409619,16.9209159 111.417269,14.5171642 C112.411924,13.7297283 113.128313,13.9270807 113.568409,15.1052742 C113.637483,15.3144677 113.659191,15.590761 113.637483,15.9381012 C113.451971,16.7255371 113.832861,16.9682805 114.782126,16.6663314 C115.522198,16.5281847 115.914929,16.4018792 115.96032,16.2854413 C115.938611,16.1472947 115.57943,15.7999545 114.884749,15.2453944 C114.308481,14.5980787 114.561092,14.0889096 115.648503,13.7178872 Z M101.008905,2.47867061 C101.287172,1.39125913 101.889097,0.824857876 102.812706,0.779466835 C103.9238,0.941295765 104.47836,1.65768481 104.47836,2.92863397 C104.432969,3.85421651 104.340213,4.77979906 104.200093,5.7053816 C103.900117,6.53820853 104.061946,7.10460979 104.687553,7.40458537 C106.051258,7.49734097 106.686733,8.20188888 106.593977,9.52020261 C106.363075,10.4457851 105.623003,11.2430887 104.373763,11.9140867 C103.864594,12.3068178 103.681056,12.8396692 103.819203,13.5106672 C103.564618,14.3888852 103.819203,15.002651 104.582957,15.3480176 C105.877588,15.7190401 106.305843,16.4709525 105.865747,17.603755 C105.658527,18.2510708 105.275663,18.5293376 104.721103,18.436582 C104.281007,18.4128997 103.981032,18.5747286 103.819203,18.9220688 C103.75013,20.9804538 103.726447,23.0723888 103.75013,25.2018207 C103.842885,26.5201344 103.657374,27.6174135 103.195569,28.497605 C102.731791,29.2593851 102.281828,29.6994808 101.841732,29.8159187 C101.518074,29.7231631 101.299013,29.3639818 101.182575,28.7403484 C100.975355,27.8384481 100.870759,26.6701222 100.870759,25.2353706 C100.894441,23.2697411 100.870759,21.2587206 100.801685,19.2003356 C100.70893,18.9220688 100.478028,18.8766777 100.107005,19.0602154 C99.1123493,19.985798 98.1176934,20.9567715 97.1230375,21.9751097 C96.2921841,22.8533277 95.9211617,22.9006922 96.0139173,22.1132563 C96.5467686,20.4258937 97.6795712,18.0556919 99.4142984,15.002651 C99.6905917,14.4244086 99.7951884,14.0533862 99.7261151,13.8915573 C99.5642861,13.706046 99.1360315,13.5225084 98.4413512,13.3369971 C97.4703777,12.989657 96.6849153,12.2732679 96.0829906,11.1858565 C95.9211617,10.7003697 96.1757462,10.3194796 96.8467442,10.0412128 C97.4486689,9.71755496 98.3722779,9.34653253 99.6215183,8.93011907 C100.268834,8.76829014 100.697089,8.46831456 100.904309,8.02821881 L101.008905,2.47867061 Z" id="Fill-8"></path>
            </g>
        </g>
    </g>
</svg>