<?xml version="1.0" encoding="UTF-8"?>
<svg width="1024px" height="835px" viewBox="0 0 1024 835" version="1.1" xmlns="http://www.w3.org/2000/svg" xmlns:xlink="http://www.w3.org/1999/xlink">
    <!-- Generator: Sketch 51 (57462) - http://www.bohemiancoding.com/sketch -->
    <title>undraw_taking_notes_tjaf</title>
    <desc>Created with Sketch.</desc>
    <defs>
        <linearGradient x1="49.9944184%" y1="100%" x2="49.9944184%" y2="0%" id="linearGradient-1">
            <stop stop-color="#808080" stop-opacity="0.25" offset="0%"></stop>
            <stop stop-color="#808080" stop-opacity="0.12" offset="54%"></stop>
            <stop stop-color="#808080" stop-opacity="0.1" offset="100%"></stop>
        </linearGradient>
        <linearGradient x1="49.9936241%" y1="100.004506%" x2="49.9936241%" y2="1.2807187e-14%" id="linearGradient-2">
            <stop stop-color="#808080" stop-opacity="0.25" offset="0%"></stop>
            <stop stop-color="#808080" stop-opacity="0.12" offset="54%"></stop>
            <stop stop-color="#808080" stop-opacity="0.1" offset="100%"></stop>
        </linearGradient>
        <linearGradient x1="50.0026011%" y1="100%" x2="50.0026011%" y2="-0.0182621717%" id="linearGradient-3">
            <stop stop-color="#808080" stop-opacity="0.25" offset="0%"></stop>
            <stop stop-color="#808080" stop-opacity="0.12" offset="54%"></stop>
            <stop stop-color="#808080" stop-opacity="0.1" offset="100%"></stop>
        </linearGradient>
        <linearGradient x1="49.9975438%" y1="100%" x2="49.9975438%" y2="0%" id="linearGradient-4">
            <stop stop-color="#808080" stop-opacity="0.25" offset="0%"></stop>
            <stop stop-color="#808080" stop-opacity="0.12" offset="54%"></stop>
            <stop stop-color="#808080" stop-opacity="0.1" offset="100%"></stop>
        </linearGradient>
        <linearGradient x1="50.0024608%" y1="99.9961641%" x2="50.0024608%" y2="0.00165012633%" id="linearGradient-5">
            <stop stop-color="#808080" stop-opacity="0.25" offset="0%"></stop>
            <stop stop-color="#808080" stop-opacity="0.12" offset="54%"></stop>
            <stop stop-color="#808080" stop-opacity="0.1" offset="100%"></stop>
        </linearGradient>
        <linearGradient x1="50%" y1="100.025363%" x2="50%" y2="0%" id="linearGradient-6">
            <stop stop-color="#808080" stop-opacity="0.25" offset="0%"></stop>
            <stop stop-color="#808080" stop-opacity="0.12" offset="54%"></stop>
            <stop stop-color="#808080" stop-opacity="0.1" offset="100%"></stop>
        </linearGradient>
        <linearGradient x1="49.9693811%" y1="100.000101%" x2="49.9693811%" y2="-0.0172476432%" id="linearGradient-7">
            <stop stop-color="#808080" stop-opacity="0.25" offset="0%"></stop>
            <stop stop-color="#808080" stop-opacity="0.12" offset="54%"></stop>
            <stop stop-color="#808080" stop-opacity="0.1" offset="100%"></stop>
        </linearGradient>
    </defs>
    <g id="undraw_taking_notes_tjaf" stroke="none" stroke-width="1" fill="none" fill-rule="evenodd">
        <g>
            <ellipse id="Oval" fill="#1C3ED3" fill-rule="nonzero" opacity="0.1" cx="619.016313" cy="815.264531" rx="104.590793" ry="17.5203756"></ellipse>
            <path d="M614.624947,102.981092 C571.806686,139.292852 516.254441,136.946373 467.626667,118.057218 C418.998892,99.1680634 374.205005,65.5254225 326.78999,41.620669 C287.979186,21.8790559 246.172831,8.68171711 203.059102,2.56157277 C142.626476,-5.81731221 75.1226743,4.38987089 33.008596,63.0909507 C-13.8880611,128.459941 -10.2791213,246.360728 40.4416428,306.401256 C66.2421394,336.925035 100.023381,351.903392 129.4915,375.739707 C158.959618,399.576021 186.217383,439.143521 183.71362,485.144284 C181.395683,527.732876 154.372646,560.427148 126.440038,580.958838 C104.835301,596.79757 78.2328176,614.102852 75.5823496,646.924225 C73.0590258,678.679906 95.4266285,703.562359 116.796638,717.719448 C186.471671,763.88642 272.303801,763.436678 341.744107,716.555986 C366.51767,699.827547 389.276485,677.584883 415.253028,664.542371 C483.441452,630.322887 558.593467,664.767242 630.791824,677.369789 C691.909074,688.036491 754.581394,682.512488 814.124011,661.208415 C849.880879,648.420106 885.77467,628.866115 910.900325,592.437031 C929.013486,566.166244 940.299981,532.914683 950.892073,500.083533 C962.198128,465.068854 973.060809,429.80975 983.480115,394.306221 C989.729742,372.992371 995.891347,351.287441 997.5051,328.467934 C1000.4392,287.140575 988.096428,246.341174 971.30361,211.417746 C931.468348,128.547934 864.306858,70.3259272 791.609704,55.5333333 C718.91255,40.7407394 641.882713,69.6317606 585.469799,132.840035" id="Shape" fill="#CC002E" fill-rule="nonzero" opacity="0.1"></path>
            <g id="Group" opacity="0.35" transform="translate(329.596944, 192.606808)" fill="#1C3ED3" fill-rule="nonzero">
                <path d="M160.387545,6.88300469 L160.387545,0.381302817 L57.8897421,0.381302817 C53.1756256,0.381302817 56.0510411,6.92211268 56.0510411,6.92211268 L0.361872015,6.92211268 L0.361872015,152.745998 L244.86999,152.745998 L244.86999,6.88300469 L160.387545,6.88300469 Z" id="Shape" opacity="0.2"></path>
            </g>
            <g id="Group-2" transform="translate(816.000000, 90.000000)">
                <path d="M0.882063037,217.173638 C0.882063037,217.173638 6.92630372,154.796408 42.9374594,121.623063 C58.15086,107.808072 68.4647767,89.4277585 72.3273352,69.2476995 C74.0949483,59.6533771 74.9756305,49.9168061 74.9584951,40.1611385" id="Shape" stroke="#EFB2C0" stroke-width="2"></path>
                <path d="M97.6094747,19.1210446 C94.8514231,25.9649413 74.488787,40.7868662 74.488787,40.7868662 C74.488787,40.7868662 70.0974212,15.9728521 72.8554728,9.1289554 C74.6375013,4.70858415 78.6432065,1.57436992 83.3636782,0.90694086 C88.0841499,0.239511804 92.802236,2.14026628 95.7406791,5.89320847 C98.6791223,9.64615066 99.3915032,14.6811194 97.6094747,19.1014906 L97.6094747,19.1210446 Z" id="Shape" fill="#EFB2C0" fill-rule="nonzero"></path>
                <path d="M102.802827,65.2098005 C96.7781471,69.4530164 71.6231519,70.8315728 71.6231519,70.8315728 C71.6231519,70.8315728 81.4034766,47.6307629 87.4477173,43.3973239 C91.3454678,40.6553312 96.4104717,40.2003428 100.734791,42.2037484 C105.05911,44.207154 107.985778,48.3645888 108.412346,53.109987 C108.838914,57.8553853 106.700578,62.4678081 102.802827,65.2098005 Z" id="Shape" fill="#EFB2C0" fill-rule="nonzero"></path>
                <path d="M75.8286915,129.532653 C68.4836676,130.148603 46.0769436,118.650857 46.0769436,118.650857 C46.0769436,118.650857 66.2537536,103.564953 73.5987775,102.949002 C78.3491064,102.550802 82.9511011,104.716257 85.6712345,108.629662 C88.391368,112.543067 88.8163872,117.609883 86.7861916,121.921488 C84.7559959,126.233093 80.5790205,129.134453 75.8286915,129.532653 Z" id="Shape" fill="#EFB2C0" fill-rule="nonzero"></path>
                <path d="M44.4631901,173.59757 C37.3333333,175.4552 13.2932951,167.897582 13.2932951,167.897582 C13.2932951,167.897582 30.6338109,149.624378 37.744107,147.776526 C44.8768197,145.927134 52.158765,150.208143 54.008787,157.338427 C55.858809,164.468712 51.5763421,171.748178 44.4436294,173.59757 L44.4631901,173.59757 Z" id="Shape" fill="#EFB2C0" fill-rule="nonzero"></path>
                <path d="M45.0989112,61.6900822 C48.0819102,68.4264319 68.9335626,82.5541901 68.9335626,82.5541901 C68.9335626,82.5541901 72.4838204,57.6228521 69.5008214,50.8865023 C66.5299831,44.1368956 58.6481421,41.0727787 51.8962369,44.0426056 C45.1443316,47.0124326 42.0791712,54.8915904 45.0500096,61.6411972 L45.0989112,61.6900822 Z" id="Shape" fill="#EFB2C0" fill-rule="nonzero"></path>
                <path d="M9.06819484,113.742805 C13.9583572,119.276585 38.0570774,126.531115 38.0570774,126.531115 C38.0570774,126.531115 33.9786819,101.677993 29.1178606,96.1344366 C24.2564886,90.5997597 15.8272981,90.0525962 10.290736,94.9123129 C4.75417398,99.7720295 4.20682366,108.198351 9.06819484,113.733028 L9.06819484,113.742805 Z" id="Shape" fill="#EFB2C0" fill-rule="nonzero"></path>
            </g>
            <g id="Group-3" transform="translate(815.000000, 143.000000)">
                <path d="M0.102043935,165.258885 C0.102043935,165.258885 30.9198472,110.683697 77.3666094,94.9622887 C96.8759412,88.4906504 113.757805,75.8652976 125.476027,58.982946 C130.978771,50.9297122 135.729182,42.3877743 139.667278,33.4649883" id="Shape" stroke="#FC7795" stroke-width="2"></path>
                <path d="M168.812646,23.3751291 C163.53127,28.5080516 138.904413,33.8169601 138.904413,33.8169601 C138.904413,33.8169601 144.938873,9.37447183 150.230029,4.2317723 C155.518121,-0.897928835 163.964827,-0.770986848 169.096275,4.51530516 C174.227723,9.80159718 174.100738,18.245428 168.812646,23.3751291 Z" id="Shape" fill="#FC7795" fill-rule="nonzero"></path>
                <path d="M154.885463,67.5867019 C147.657803,69.0239202 124.097001,60.0975235 124.097001,60.0975235 C124.097001,60.0975235 142.464451,42.8606808 149.692111,41.4234624 C154.367315,40.496075 159.182306,42.1324764 162.323322,45.7162501 C165.464339,49.3000237 166.454186,54.2867091 164.919998,58.79787 C163.385811,63.309031 159.560667,66.6593148 154.885463,67.5867019 Z" id="Shape" fill="#FC7795" fill-rule="nonzero"></path>
                <path d="M104.154919,115.493979 C97.1913276,113.088838 81.3667622,93.4957394 81.3667622,93.4957394 C81.3667622,93.4957394 105.925158,87.8739671 112.888749,90.288885 C117.392739,91.8485021 120.722268,95.6916799 121.623134,100.37073 C122.524001,105.049781 120.859342,109.853845 117.256219,112.973278 C113.653096,116.092711 108.658909,117.053597 104.154919,115.493979 Z" id="Shape" fill="#FC7795" fill-rule="nonzero"></path>
                <path d="M57.6103534,143.074883 C50.3435721,141.891866 31.4284241,125.270974 31.4284241,125.270974 C31.4284241,125.270974 54.6860363,115.591749 61.9625979,116.784542 C66.6657555,117.561731 70.5968859,120.788134 72.2751701,125.248396 C73.9534544,129.708658 73.1239213,134.725159 70.0990479,138.408232 C67.0741744,142.091304 62.313511,143.881403 57.6103534,143.104214 L57.6103534,143.074883 Z" id="Shape" fill="#FC7795" fill-rule="nonzero"></path>
                <path d="M103.558319,41.0226056 C103.558319,48.3944601 116.888902,69.7571948 116.888902,69.7571948 C116.888902,69.7571948 130.248825,48.4042371 130.248825,41.0323826 C130.380241,36.1800959 127.865783,31.6391044 123.682685,29.1742431 C119.499586,26.7093818 114.307558,26.7093818 110.12446,29.1742431 C105.941361,31.6391044 103.426903,36.1800959 103.558319,41.0323826 L103.558319,41.0226056 Z" id="Shape" fill="#FC7795" fill-rule="nonzero"></path>
                <path d="M49.5415855,73.9710798 C51.7421585,81.0007394 70.8626934,97.4358685 70.8626934,97.4358685 C70.8626934,97.4358685 77.2101242,73.0618192 75.0095511,66.0321596 C73.7686004,61.2711244 70.0061483,57.5798707 65.2210473,56.4288876 C60.4359464,55.2779045 55.4056059,56.8541859 52.1339686,60.5297869 C48.8623313,64.2053879 47.8809223,69.3831533 49.5807068,74.0004108 L49.5415855,73.9710798 Z" id="Shape" fill="#FC7795" fill-rule="nonzero"></path>
                <path d="M1.42238777,113.196385 C2.40042025,120.4998 18.4792741,139.897359 18.4792741,139.897359 C18.4792741,139.897359 28.8561987,116.950751 27.8781662,109.647336 C27.5352672,104.685057 24.4601834,100.325197 19.899784,98.3355678 C15.3393846,96.3459391 10.0505403,97.0567528 6.1777448,100.179792 C2.30494925,103.302831 0.49095432,108.319777 1.4712894,113.196385 L1.42238777,113.196385 Z" id="Shape" fill="#FC7795" fill-rule="nonzero"></path>
            </g>
            <path d="M796.979102,259.041491 C800.891232,265.318322 823.385979,276.542312 823.385979,276.542312 C823.385979,276.542312 823.630487,251.356772 819.718357,245.079941 C815.787186,238.976896 807.697308,237.133982 801.509137,240.93179 C795.320965,244.729597 793.304045,252.775261 796.969322,259.041491 L796.979102,259.041491 Z" id="Shape" fill="#CC002E" fill-rule="nonzero" opacity="0.3"></path>
            <path d="M150.118204,559.50811 C150.118204,559.50811 111.974938,512.255892 114.371117,464.837465 C115.510629,444.958691 110.170823,425.246556 99.1529322,408.65885 C93.8590164,400.82651 87.8581387,393.495691 81.2255969,386.75838" id="Shape" stroke="#EFB2C0" stroke-width="2"></path>
            <path d="M82.5655014,356.870106 C85.3039924,363.469577 81.3038395,387.550317 81.3038395,387.550317 C81.3038395,387.550317 61.4302197,373.373674 58.6917287,366.774202 C55.9585575,360.178486 59.0915893,352.616683 65.6895511,349.884442 C72.2875129,347.152202 79.8518908,350.284167 82.5850621,356.879883 L82.5655014,356.870106 Z" id="Shape" fill="#EFB2C0" fill-rule="nonzero"></path>
            <path d="M117.491041,385.233169 C116.200038,392.253052 99.7397517,410.272054 99.7397517,410.272054 C99.7397517,410.272054 90.7320726,387.550317 92.0621968,380.549988 C92.8442578,375.95639 96.0391469,372.139178 100.424227,370.559144 C104.809308,368.97911 109.705697,369.880868 113.239619,372.91933 C116.77354,375.957791 118.397886,380.662552 117.491041,385.233169 Z" id="Shape" fill="#EFB2C0" fill-rule="nonzero"></path>
            <path d="M142.46999,448.021033 C137.804776,453.437488 114.488481,460.682242 114.488481,460.682242 C114.488481,460.682242 118.205005,436.562394 122.87022,431.145939 C127.612076,426.086572 135.50249,425.668293 140.753016,430.197955 C146.003542,434.727616 146.74386,442.591681 142.430869,448.021033 L142.46999,448.021033 Z" id="Shape" fill="#EFB2C0" fill-rule="nonzero"></path>
            <path d="M150.685463,499.790223 C147.008061,505.910622 125.256619,516.997735 125.256619,516.997735 C125.256619,516.997735 124.836065,492.555246 128.523247,486.473955 C132.241864,480.448314 140.11781,478.53482 146.188129,482.182198 C152.258447,485.829576 154.263599,493.680173 150.685463,499.790223 Z" id="Shape" fill="#EFB2C0" fill-rule="nonzero"></path>
            <path d="M75.142235,421.945786 C81.7830755,424.575798 105.803553,420.205481 105.803553,420.205481 C105.803553,420.205481 91.3286724,400.553721 84.6976122,397.913932 C78.1151739,395.500469 70.8073919,398.766863 68.2176622,405.280056 C65.6279325,411.793248 68.6985284,419.183411 75.142235,421.945786 Z" id="Shape" fill="#EFB2C0" fill-rule="nonzero"></path>
            <path d="M85.5289398,482.387171 C92.6490162,482.915129 114.263534,471.564038 114.263534,471.564038 C114.263534,471.564038 94.5659599,457.133192 87.4458835,456.605235 C82.8388156,456.255936 78.3952972,458.390176 75.7891588,462.204006 C73.1830205,466.017836 72.8101966,470.931846 74.8111263,475.094975 C76.812056,479.258104 80.8827506,482.037873 85.4898185,482.387171 L85.5289398,482.387171 Z" id="Shape" fill="#EFB2C0" fill-rule="nonzero"></path>
            <path d="M103.681223,539.709695 C110.605692,541.440223 133.833964,533.843498 133.833964,533.843498 C133.833964,533.843498 116.85532,516.352453 109.93085,514.651256 C103.000694,512.926056 95.9836666,517.143594 94.2578797,524.071391 C92.5320927,530.999187 96.751067,538.013826 103.681223,539.739026 L103.681223,539.709695 Z" id="Shape" fill="#EFB2C0" fill-rule="nonzero"></path>
            <path d="M964.95618,638.819096 C964.95618,638.819096 972.418567,648.596092 961.513505,663.261585 C950.608443,677.927077 941.610544,690.422077 945.248825,699.612453 C945.248825,699.612453 961.709112,672.236866 975.098376,671.875117 C988.487641,671.513369 979.695129,655.264002 964.95618,638.819096 Z" id="Shape" fill="#FC7795" fill-rule="nonzero"></path>
            <path d="M964.95618,638.819096 C965.606707,639.762054 966.120383,640.792348 966.48191,641.879296 C979.548424,657.229178 986.512015,671.552477 973.954078,671.914225 C962.217689,672.246643 948.212264,693.159636 944.847832,698.448991 C944.959387,698.856879 945.093252,699.25834 945.248825,699.651561 C945.248825,699.651561 961.709112,672.275974 975.098376,671.914225 C988.487641,671.552477 979.695129,655.264002 964.95618,638.819096 Z" id="Shape" fill="#000000" fill-rule="nonzero" opacity="0.1"></path>
            <path d="M978.83446,651.245657 C978.83446,654.68716 978.443247,657.463826 977.973792,657.463826 C977.504336,657.463826 977.113123,654.68716 977.113123,651.245657 C977.113123,647.804155 977.592359,649.436913 978.091156,649.436913 C978.589952,649.436913 978.83446,647.813932 978.83446,651.245657 Z" id="Shape" fill="#FFD037" fill-rule="nonzero"></path>
            <path d="M983.587698,655.351995 C980.575358,656.994531 977.944451,657.982007 977.719503,657.571373 C977.494556,657.160739 979.753811,655.479096 982.766151,653.836561 C985.778491,652.194026 984.595072,653.386819 984.820019,653.836561 C985.044967,654.286303 986.609819,653.70946 983.587698,655.351995 Z" id="Shape" fill="#FFD037" fill-rule="nonzero"></path>
            <path d="M925.541471,638.819096 C925.541471,638.819096 918.079083,648.596092 928.984145,663.261585 C939.889207,677.927077 948.887106,690.422077 945.248825,699.612453 C945.248825,699.612453 928.788539,672.236866 915.399274,671.875117 C902.01001,671.513369 910.802521,655.264002 925.541471,638.819096 Z" id="Shape" fill="#FC7795" fill-rule="nonzero"></path>
            <path d="M925.541471,638.819096 C924.886133,639.759209 924.372099,640.790222 924.01574,641.879296 C910.939446,657.229178 903.985635,671.552477 916.543572,671.914225 C928.279962,672.246643 942.285387,693.159636 945.649819,698.448991 C945.532455,698.849847 945.40531,699.250704 945.248825,699.651561 C945.248825,699.651561 928.788539,672.275974 915.399274,671.914225 C902.01001,671.552477 910.802521,655.264002 925.541471,638.819096 Z" id="Shape" fill="#000000" fill-rule="nonzero" opacity="0.1"></path>
            <path d="M911.65341,651.245657 C911.65341,654.68716 912.044623,657.463826 912.514078,657.463826 C912.983534,657.463826 913.374747,654.68716 913.374747,651.245657 C913.374747,647.804155 912.895511,649.436913 912.396714,649.436913 C911.897918,649.436913 911.65341,647.813932 911.65341,651.245657 Z" id="Shape" fill="#FFD037" fill-rule="nonzero"></path>
            <path d="M906.900172,655.351995 C909.922292,656.994531 912.5532,657.982007 912.768367,657.571373 C912.983534,657.160739 910.734059,655.479096 907.721719,653.836561 C904.709379,652.194026 905.892798,653.386819 905.667851,653.836561 C905.442904,654.286303 903.887832,653.70946 906.900172,655.351995 Z" id="Shape" fill="#FFD037" fill-rule="nonzero"></path>
            <ellipse id="Oval" fill="#1C3ED3" fill-rule="nonzero" opacity="0.1" cx="945.248825" cy="762.302547" rx="78.0274308" ry="11.9670423"></ellipse>
            <path d="M985.406839,686.501502 L985.035186,689.542148 L984.507049,693.844026 L984.291882,695.642993 L983.773524,699.944871 L983.538797,701.743838 L983.020439,706.045716 L977.044661,754.930692 C976.516523,759.301009 969.376886,762.752289 960.76042,762.752289 L929.73723,762.752289 C921.120764,762.752289 913.990907,759.349894 913.452989,754.930692 L907.477211,706.045716 L906.949074,701.743838 L906.733906,699.944871 L906.205769,695.642993 L905.980821,693.844026 L905.462464,689.542148 L905.081032,686.501502 C904.787622,684.027923 908.65085,681.945423 913.521452,681.945423 L976.976199,681.945423 C981.8468,681.945423 985.710029,684.027923 985.406839,686.501502 Z" id="Shape" fill="#65617D" fill-rule="nonzero"></path>
            <polygon id="Shape" fill="#9D9CB5" fill-rule="nonzero" points="985.035186 689.542148 984.507049 693.844026 905.980821 693.844026 905.462464 689.542148"></polygon>
            <polygon id="Shape" fill="#9D9CB5" fill-rule="nonzero" points="984.291882 695.642993 983.763744 699.944871 906.733906 699.944871 906.195989 695.642993"></polygon>
            <polygon id="Shape" fill="#9D9CB5" fill-rule="nonzero" points="983.538797 701.743838 983.020439 706.035939 907.477211 706.035939 906.949074 701.743838"></polygon>
            <path d="M786.025138,181.813005 L785.203591,181.813005 C786.494594,180.346455 787.159656,178.879906 787.052073,177.579566 L779.619026,170.149049 L782.45532,163.794002 L772.899943,163.794002 L774.670181,158.837066 L769.007373,158.837066 L706.354613,179.701174 C706.354613,179.701174 706.286151,180.571326 706.354613,181.813005 L666.010774,181.813005 L666.010774,363.518462 L841.235072,363.518462 L841.235072,181.813005 L786.025138,181.813005 Z" id="Shape" fill="url(#linearGradient-1)" fill-rule="nonzero"></path>
            <rect id="Rectangle-path" fill="#F6F7F9" fill-rule="nonzero" x="667.311557" y="182.448509" width="172.58361" height="179.153662"></rect>
            <path d="M785.545903,182.448509 C777.369551,194.483991 722.756218,210.3325 722.756218,210.3325 L723.098529,197.788615 L712.995454,197.788615 C713.564337,195.307202 712.424141,192.74861 710.198281,191.511784 C707.264183,189.89858 706.980554,184.667887 707.019675,182.448509 L785.545903,182.448509 Z" id="Shape" fill="#000000" fill-rule="nonzero" opacity="0.1"></path>
            <path d="M768.772646,159.795211 L707.068577,180.326901 C707.068577,180.326901 706.364394,188.344038 710.198281,190.426538 C712.419076,191.667993 713.557508,194.222624 712.995454,196.703369 L723.098529,196.703369 L722.756218,209.247254 C722.756218,209.247254 787.599771,190.426538 786.553276,178.234624 L779.237593,170.911655 L782.024986,164.634824 L772.606533,164.634824 L774.357211,159.746326 L768.772646,159.795211 Z" id="Shape" fill="#9D9CB5" fill-rule="nonzero"></path>
            <g id="Group" opacity="0.35" transform="translate(698.315186, 240.514085)" fill="#1C3ED3" fill-rule="nonzero">
                <rect id="Rectangle-path" opacity="0.2" x="0.899789876" y="0.00977699531" width="108.776772" height="3.05042254"></rect>
            </g>
            <g id="Group" opacity="0.35" transform="translate(698.315186, 256.157277)" fill="#1C3ED3" fill-rule="nonzero">
                <rect id="Rectangle-path" opacity="0.2" x="0.899789876" y="0.449741784" width="108.776772" height="3.05042254"></rect>
            </g>
            <g id="Group" opacity="0.35" transform="translate(698.315186, 271.800469)" fill="#1C3ED3" fill-rule="nonzero">
                <rect id="Rectangle-path" opacity="0.2" x="0.899789876" y="0.879929577" width="108.776772" height="3.05042254"></rect>
            </g>
            <g id="Group" opacity="0.35" transform="translate(698.315186, 288.421362)" fill="#1C3ED3" fill-rule="nonzero">
                <rect id="Rectangle-path" opacity="0.2" x="0.899789876" y="0.33241784" width="108.776772" height="3.05042254"></rect>
            </g>
            <g id="Group" opacity="0.35" transform="translate(698.315186, 304.064554)" fill="#1C3ED3" fill-rule="nonzero">
                <rect id="Rectangle-path" opacity="0.2" x="0.899789876" y="0.762605634" width="108.776772" height="3.05042254"></rect>
            </g>
            <g id="Group" opacity="0.35" transform="translate(698.315186, 320.685446)" fill="#1C3ED3" fill-rule="nonzero">
                <rect id="Rectangle-path" opacity="0.2" x="0.899789876" y="0.224870892" width="108.776772" height="3.05042254"></rect>
            </g>
            <path d="M201.279083,167.08885 L200.868309,167.08885 C203.958892,159.169484 206.814747,151.445657 206.687603,149.969331 C206.413754,147.036232 200.535778,153.410833 200.261929,151.817183 C199.98808,150.223533 200.261929,144.18135 197.591901,144.18135 C194.921872,144.18135 193.308118,147.319765 191.723706,147.319765 C190.139293,147.319765 183.694059,146.26385 183.694059,146.26385 L175.488367,167.08885 L113.676714,167.08885 L113.676714,361.15243 L267.071328,361.15243 L267.071328,167.08885 L201.279083,167.08885 Z" id="Shape" fill="url(#linearGradient-2)" fill-rule="nonzero"></path>
            <rect id="Rectangle-path" fill="#F6F7F9" fill-rule="nonzero" x="115.398052" y="168.164319" width="149.922598" height="191.68777"></rect>
            <path d="M201.034575,168.164319 C197.87553,176.367218 194.315492,185.010082 193.503725,187.073028 C191.929093,190.983826 190.892378,188.901326 189.053677,188.383146 C187.214976,187.864965 184.877479,188.901326 183.830984,188.383146 C182.784489,187.864965 176.642445,188.383146 176.642445,188.383146 C176.711095,187.422966 176.711095,186.459112 176.642445,185.498932 C176.505521,184.46257 169.444126,185.498932 169.444126,185.498932 L176.172989,168.164319 L201.034575,168.164319 Z" id="Shape" fill="#000000" fill-rule="nonzero" opacity="0.1"></path>
            <path d="M183.830984,147.603298 L169.444126,184.46257 C169.444126,184.46257 176.505521,183.416432 176.632665,184.46257 C176.706503,185.419294 176.706503,186.380283 176.632665,187.337007 C176.632665,187.337007 182.784489,186.809049 183.830984,187.337007 C184.877479,187.864965 187.224756,186.809049 189.053677,187.337007 C190.882598,187.864965 191.929093,189.947465 193.503725,186.02689 C195.078357,182.106315 206.580019,154.134331 206.31595,151.259894 C206.051882,148.385458 200.301051,154.662289 200.036982,153.088192 C199.772913,151.514096 200.036982,145.550129 197.425635,145.550129 C194.814288,145.550129 193.239656,148.649437 191.674804,148.649437 C190.109952,148.649437 183.830984,147.603298 183.830984,147.603298 Z" id="Shape" fill="#9D9CB5" fill-rule="nonzero"></path>
            <g id="Group" opacity="0.35" transform="translate(135.946514, 219.004695)" fill="#1C3ED3" fill-rule="nonzero">
                <rect id="Rectangle-path" opacity="0.2" x="0.0293409742" y="0.0391079812" width="108.776772" height="3.05042254"></rect>
            </g>
            <g id="Group" opacity="0.35" transform="translate(135.946514, 229.759390)" fill="#1C3ED3" fill-rule="nonzero">
                <rect id="Rectangle-path" opacity="0.2" x="0.0293409742" y="0.79193662" width="108.776772" height="3.05042254"></rect>
            </g>
            <g id="Group" opacity="0.35" transform="translate(135.946514, 241.491784)" fill="#1C3ED3" fill-rule="nonzero">
                <rect id="Rectangle-path" opacity="0.2" x="0.0293409742" y="0.557288732" width="108.776772" height="3.05042254"></rect>
            </g>
            <g id="Group" opacity="0.35" transform="translate(135.946514, 253.224178)" fill="#1C3ED3" fill-rule="nonzero">
                <rect id="Rectangle-path" opacity="0.2" x="0.0293409742" y="0.33241784" width="108.776772" height="3.05042254"></rect>
            </g>
            <g id="Group" opacity="0.35" transform="translate(135.946514, 264.956573)" fill="#1C3ED3" fill-rule="nonzero">
                <rect id="Rectangle-path" opacity="0.2" x="0.0293409742" y="0.0977699531" width="108.776772" height="3.05042254"></rect>
            </g>
            <g id="Group" opacity="0.35" transform="translate(135.946514, 275.711268)" fill="#1C3ED3" fill-rule="nonzero">
                <rect id="Rectangle-path" opacity="0.2" x="0.0293409742" y="0.840821596" width="108.776772" height="3.05042254"></rect>
            </g>
            <path d="M767.021968,454.033885 L766.611194,454.033885 C770.40596,444.25689 773.907316,434.704765 773.741051,432.915575 C773.4183,429.327418 766.20042,437.158791 765.916791,435.203392 C765.633161,433.247993 765.916791,425.778369 762.640382,425.778369 C759.363973,425.778369 757.398128,429.689167 755.432283,429.689167 C753.466437,429.689167 745.593276,428.379049 745.593276,428.379049 L735.48042,454.033885 L659.731805,454.033885 L659.731805,693.462723 L847.738988,693.462723 L847.738988,454.033885 L767.021968,454.033885 Z" id="Shape" fill="url(#linearGradient-3)" fill-rule="nonzero"></path>
            <rect id="Rectangle-path" fill="#F6F7F9" fill-rule="nonzero" x="661.237975" y="455.695974" width="184.730774" height="236.212207"></rect>
            <path d="M766.660096,455.695974 C762.806648,465.727171 758.483744,476.227664 757.476371,478.750129 C755.520306,483.579965 754.258644,480.998838 751.999389,480.363333 C749.740134,479.727829 746.845158,480.998838 745.554155,480.363333 C744.263152,479.727829 736.693181,480.363333 736.693181,480.363333 C736.777718,479.181826 736.777718,477.995791 736.693181,476.814284 C736.526915,475.533498 727.832206,476.814284 727.832206,476.814284 L736.07702,455.695974 L766.660096,455.695974 Z" id="Shape" fill="#000000" fill-rule="nonzero" opacity="0.1"></path>
            <path d="M745.554155,430.354002 L727.832206,475.768146 C727.832206,475.768146 736.526915,474.477582 736.693181,475.768146 C736.777753,476.946388 736.777753,478.129175 736.693181,479.307418 C736.693181,479.307418 744.263152,478.671913 745.554155,479.307418 C746.845158,479.942923 749.740134,478.671913 751.999389,479.307418 C754.258644,479.942923 755.539866,482.533826 757.476371,477.703991 C759.412875,472.874155 773.584565,438.400469 773.261815,434.861197 C772.939064,431.321925 765.848329,439.045751 765.525578,437.119683 C765.202827,435.193615 765.525578,427.821761 762.307851,427.821761 C759.090124,427.821761 757.15362,431.644566 755.217116,431.644566 C753.280611,431.644566 745.554155,430.354002 745.554155,430.354002 Z" id="Shape" fill="#9D9CB5" fill-rule="nonzero"></path>
            <g id="Group" opacity="0.35" transform="translate(698.315186, 521.113850)" fill="#1C3ED3" fill-rule="nonzero">
                <rect id="Rectangle-path" opacity="0.2" x="0.899789876" y="0.586619718" width="108.776772" height="7.75315728"></rect>
            </g>
            <g id="Group" opacity="0.35" transform="translate(698.315186, 571.954225)" fill="#1C3ED3" fill-rule="nonzero">
                <rect id="Rectangle-path" opacity="0.2" x="0.899789876" y="0.107546948" width="108.776772" height="7.75315728"></rect>
            </g>
            <g id="Group" opacity="0.35" transform="translate(698.315186, 621.816901)" fill="#1C3ED3" fill-rule="nonzero">
                <rect id="Rectangle-path" opacity="0.2" x="0.899789876" y="0.615950704" width="108.776772" height="7.75315728"></rect>
            </g>
            <polygon id="Shape" fill="url(#linearGradient-4)" fill-rule="nonzero" points="232.742388 462.21723 232.742388 433.306655 192.14426 433.306655 192.14426 462.21723 107.378185 462.21723 107.378185 690.001667 306.476256 690.001667 306.476256 462.21723"></polygon>
            <rect id="Rectangle-path" fill="#F6F7F9" fill-rule="nonzero" x="109.480955" y="463.370915" width="194.892531" height="225.144648"></rect>
            <rect id="Rectangle-path" fill="#000000" fill-rule="nonzero" opacity="0.1" x="192.45723" y="463.370915" width="39.7472397" height="30.6704343"></rect>
            <rect id="Rectangle-path" fill="#9D9CB5" fill-rule="nonzero" x="192.45723" y="434.792758" width="39.7472397" height="58.2024531"></rect>
            <g id="Group" opacity="0.35" transform="translate(151.595033, 517.203052)" fill="#1C3ED3" fill-rule="nonzero">
                <rect id="Rectangle-path" opacity="0.2" x="0.938911175" y="0.6257277" width="108.776772" height="7.75315728"></rect>
            </g>
            <g id="Group" opacity="0.35" transform="translate(151.595033, 532.846244)" fill="#1C3ED3" fill-rule="nonzero">
                <rect id="Rectangle-path" opacity="0.2" x="0.938911175" y="0.400856808" width="108.776772" height="7.75315728"></rect>
            </g>
            <g id="Group" opacity="0.35" transform="translate(151.595033, 548.489437)" fill="#1C3ED3" fill-rule="nonzero">
                <rect id="Rectangle-path" opacity="0.2" x="0.938911175" y="0.185762911" width="108.776772" height="7.75315728"></rect>
            </g>
            <g id="Group" opacity="0.35" transform="translate(151.595033, 563.154930)" fill="#1C3ED3" fill-rule="nonzero">
                <rect id="Rectangle-path" opacity="0.2" x="0.938911175" y="0.938591549" width="108.776772" height="7.75315728"></rect>
            </g>
            <g id="Group" opacity="0.35" transform="translate(231.793696, 580.753521)" fill="#1C3ED3" fill-rule="nonzero">
                <rect id="Rectangle-path" opacity="0.2" x="0.410773639" y="0.508403756" width="29.1160267" height="23.5234507"></rect>
            </g>
            <g id="Group" opacity="0.35" transform="translate(151.595033, 610.084507)" fill="#1C3ED3" fill-rule="nonzero">
                <rect id="Rectangle-path" opacity="0.2" x="0.938911175" y="0.273755869" width="29.1160267" height="23.5234507"></rect>
            </g>
            <path d="M512.352092,461.855481 L512.078243,461.855481 C515.247068,449.468028 517.633467,439.60304 517.633467,439.60304 L504.117058,445.958087 C504.117058,445.958087 494.52256,433.247993 490.972302,435.369601 C487.422044,437.491209 479.627125,442.780563 479.627125,442.780563 L469.279542,437.481432 L465.31851,461.855481 L383.603897,461.855481 L383.603897,637.73385 L388.855931,640.872265 C393.188615,639.317723 400.318472,636.677934 400.318472,636.677934 L397.042063,645.77054 L399.252416,647.080657 L402.97872,643.707594 L404.357746,650.150634 L408.788233,652.8002 L415.781165,648.351667 L413.8251,655.840845 L420.387698,659.751643 L439.469112,652.585106 L433.718281,667.719894 L437.503266,669.988157 L446.139293,668.472723 C446.139293,668.472723 445.74808,671.493815 445.503572,674.769108 L454.16894,679.950915 C457.719198,678.572359 461.064069,677.213357 461.064069,677.213357 C461.064069,677.213357 460.721757,680.517981 460.565272,683.763944 L466.374785,687.244554 C470.961757,684.565657 476.800611,680.918838 476.800611,680.918838 L471.910449,690.011444 L582.330315,690.011444 L582.330315,461.855481 L512.352092,461.855481 Z" id="Shape" fill="url(#linearGradient-5)" fill-rule="nonzero"></path>
            <path d="M580.159083,463.370915 L580.159083,688.515563 L471.861547,688.515563 L476.693028,679.550059 C476.693028,679.550059 470.971538,683.138216 466.472588,685.787782 L460.780439,682.346279 C460.936925,679.149202 461.279236,675.883685 461.279236,675.883685 C461.279236,675.883685 457.993047,677.223134 454.511251,678.582136 L446.012149,673.468768 C446.256657,670.242359 446.628309,667.260376 446.628309,667.260376 L438.168329,668.756256 L434.461585,666.517324 L440.095053,651.578075 L421.385291,658.65662 L414.940057,654.745822 L416.81788,647.354413 L409.971652,651.744284 L405.629188,649.133826 L404.279503,642.778779 L400.621662,646.122512 L398.45043,644.822171 L401.668157,635.856667 C401.668157,635.856667 394.675224,638.457347 390.420783,639.992336 L385.276332,636.902805 L385.276332,463.370915 L580.159083,463.370915 Z" id="Shape" fill="#F6F7F9" fill-rule="nonzero"></path>
            <g id="Group" opacity="0.35" transform="translate(427.400191, 532.846244)" fill="#1C3ED3" fill-rule="nonzero">
                <rect id="Rectangle-path" opacity="0.2" x="0.919350525" y="0.400856808" width="108.776772" height="7.75315728"></rect>
            </g>
            <g id="Group" opacity="0.35" transform="translate(427.400191, 556.311033)" fill="#1C3ED3" fill-rule="nonzero">
                <rect id="Rectangle-path" opacity="0.2" x="0.919350525" y="0.117323944" width="108.776772" height="7.75315728"></rect>
            </g>
            <g id="Group" opacity="0.35" transform="translate(427.400191, 578.798122)" fill="#1C3ED3" fill-rule="nonzero">
                <rect id="Rectangle-path" opacity="0.2" x="0.919350525" y="0.801713615" width="108.776772" height="7.75315728"></rect>
            </g>
            <g id="Group" opacity="0.35" transform="translate(427.400191, 602.262911)" fill="#1C3ED3" fill-rule="nonzero">
                <rect id="Rectangle-path" opacity="0.2" x="0.919350525" y="0.518180751" width="21.7905635" height="7.75315728"></rect>
            </g>
            <path d="M511.520764,463.370915 C506.219828,484.274131 498.493372,513.233592 496.478625,512.725188 C493.348921,511.874589 488.458758,505.881291 488.458758,505.881291 C488.458758,505.881291 476.957096,516.684871 471.382311,511.111984 C465.807526,505.539096 458.129971,509.361901 458.129971,509.361901 L465.563018,463.361138 L511.520764,463.370915 Z" id="Shape" fill="#000000" fill-rule="nonzero" opacity="0.1"></path>
            <path d="M469.289322,439.368392 L458.129971,508.374425 C458.129971,508.374425 465.797746,504.541843 471.372531,510.124507 C476.947316,515.707171 488.458758,504.874261 488.458758,504.874261 C488.458758,504.874261 493.348921,510.857782 496.478625,511.718157 C499.608329,512.578533 516.704336,441.460669 516.704336,441.460669 L503.451996,447.7375 C503.451996,447.7375 494.043324,435.183838 490.551748,437.276115 C487.060172,439.368392 479.431519,444.599085 479.431519,444.599085 L469.289322,439.368392 Z" id="Shape" fill="#9D9CB5" fill-rule="nonzero"></path>
            <path d="M560.441948,138.295599 L560.441948,131.676573 L456.653142,131.676573 C451.890124,131.676573 454.804661,138.295599 454.804661,138.295599 L398.411309,138.295599 L398.411309,285.869566 L645.951328,285.869566 L645.951328,138.236937 L560.441948,138.295599 Z" id="Shape" fill="url(#linearGradient-6)" fill-rule="nonzero"></path>
            <rect id="Rectangle-path" fill="#F6F7F9" fill-rule="nonzero" x="399.97616" y="138.999542" width="244.488558" height="145.862993"></rect>
            <path d="M560.011614,162.786972 L463.000573,162.786972 C463.000573,162.786972 461.954078,151.543427 465.357631,149.460927 C468.761184,147.378427 455.67511,140.045681 455.67511,140.045681 C455.530222,139.703691 455.402912,139.354523 455.293677,138.999542 L560.011614,138.999542 L560.011614,142.401937 C560.011614,142.401937 573.351977,154.163662 560.011614,162.786972 Z" id="Shape" fill="#000000" fill-rule="nonzero" opacity="0.1"></path>
            <path d="M457.504031,132.468509 L560.011614,132.468509 L560.011614,141.355798 C560.011614,141.355798 573.351977,153.088192 560.011614,161.740833 L463.000573,161.740833 C463.000573,161.740833 461.954078,150.497289 465.357631,148.414789 C468.761184,146.332289 455.67511,138.999542 455.67511,138.999542 C455.67511,138.999542 452.799694,132.468509 457.504031,132.468509 Z" id="Shape" fill="#9D9CB5" fill-rule="nonzero"></path>
            <g id="Group" opacity="0.35" transform="translate(429.356256, 183.807512)" fill="#1C3ED3" fill-rule="nonzero">
                <rect id="Rectangle-path" opacity="0.2" x="0.655281757" y="0.938591549" width="184.437364" height="3.05042254"></rect>
            </g>
            <g id="Group" opacity="0.35" transform="translate(429.356256, 195.539906)" fill="#1C3ED3" fill-rule="nonzero">
                <rect id="Rectangle-path" opacity="0.2" x="0.655281757" y="0.703943662" width="110.175358" height="3.05042254"></rect>
            </g>
            <g id="Group" opacity="0.35" transform="translate(429.356256, 207.272300)" fill="#1C3ED3" fill-rule="nonzero">
                <rect id="Rectangle-path" opacity="0.2" x="0.655281757" y="0.47907277" width="184.437364" height="3.05042254"></rect>
            </g>
            <g id="Group" opacity="0.35" transform="translate(429.356256, 219.004695)" fill="#1C3ED3" fill-rule="nonzero">
                <rect id="Rectangle-path" opacity="0.2" x="0.655281757" y="0.244424883" width="184.437364" height="3.05042254"></rect>
            </g>
            <g id="Group" opacity="0.35" transform="translate(429.356256, 230.737089)" fill="#1C3ED3" fill-rule="nonzero">
                <rect id="Rectangle-path" opacity="0.2" x="0.655281757" y="0.00977699531" width="184.437364" height="3.05042254"></rect>
            </g>
            <path d="M690.314881,812.135892 C688.564202,804.685822 687.488367,798.154789 687.488367,798.154789 C687.488367,798.154789 687.88936,790.04966 684.251079,783.968369 L684.251079,781.944531 L684.251079,766.975951 C685.282556,764.265256 686.545623,761.648391 688.026285,759.154354 C690.725654,754.441843 688.026285,737.195223 688.026285,737.195223 C688.026285,737.195223 678.030793,712.879836 680.466094,697.461514 C682.901394,682.043192 659.927412,628.973662 659.927412,628.973662 C660.068641,623.85323 660.793814,618.765624 662.088863,613.809542 C662.327316,612.768081 662.425986,611.699517 662.382273,610.632019 C662.382273,610.504918 662.382273,610.377817 662.382273,610.240939 L662.382273,610.36804 C662.039962,600.199965 654.000535,581.134824 654.000535,581.134824 L655.076371,544.793732 C655.076371,544.793732 660.211041,523.362559 651.839083,494.608415 C648.904986,484.567441 647.036944,476.540528 645.853524,470.341913 C645.7166,469.637969 645.589456,468.963357 645.472092,468.318075 C662.714804,465.688063 675.879121,463.498016 675.879121,463.498016 C675.879121,463.498016 665.873849,421.652477 659.125425,414.339284 C652.377001,407.026092 646.968481,384.030599 646.968481,384.030599 C646.968481,384.030599 643.447564,354.494296 649.129933,345.900317 C654.812302,337.306338 655.604508,322.367089 655.604508,322.367089 C655.604508,322.367089 668.573219,312.96162 670.196753,308.777066 C671.820287,304.592512 674.519656,295.187042 674.519656,290.200775 C674.519656,285.214507 672.896122,280.785528 673.44382,278.17507 C673.991519,275.564613 669.658835,265.631185 671.820287,260.918674 C672.381844,259.471712 672.673546,257.93417 672.680955,256.382148 C672.686389,256.336684 672.686389,256.290734 672.680955,256.24527 C672.680955,256.24527 672.680955,256.24527 672.680955,256.196385 C672.695355,252.079063 672.312146,247.969964 671.536657,243.926256 C671.536657,243.926256 665.668462,238.754225 658.714651,237.082359 L658.431022,235.958005 L657.697498,233.024906 C657.284515,232.747759 656.856814,232.493184 656.416275,232.2623 L656.416275,231.196608 L656.298911,226.953392 L658.333219,217.401268 C662.313811,200.780376 640.161375,198.32635 640.161375,198.32635 C638.833466,195.766035 636.598063,193.792857 633.892187,192.79257 C629.432359,191.218474 633.148883,217.763016 635.232092,219.454437 C636.806724,220.735223 641.647985,229.055446 643.975702,233.14223 L644.357135,233.816843 C644.00354,234.145754 643.67651,234.502095 643.379102,234.882535 L644.22021,240.641185 L644.347354,241.521115 C642.881639,243.348463 641.69207,245.380912 640.816657,247.553521 C640.816657,247.553521 644.875492,251.992277 644.063725,256.958991 C643.251958,261.925704 645.305826,268.114542 645.403629,268.456737 C645.159121,268.182981 642.313047,265.093451 639.466972,265.846279 C636.620898,266.599108 628.708615,268.984695 628.708615,268.984695 C628.708615,268.984695 622.762178,270.030833 623.309876,271.340951 C623.857574,272.651068 619.251041,278.399941 619.251041,278.399941 L603.279771,263.265153 C603.123286,262.815411 602.9668,262.365669 602.820096,261.896373 C602.154266,259.734158 601.689361,257.515157 601.431289,255.26757 C603.170623,254.852628 604.877016,254.310166 606.536619,253.644589 C608.216228,253.072199 609.732764,252.102885 610.957326,250.819038 C612.561299,248.863638 612.913391,246.311843 613.529551,243.975141 C614.791213,239.321291 617.510143,235.175845 619.456428,230.76642 C622.743939,223.317786 623.849558,215.089491 622.644814,207.037653 C622.392886,204.560974 621.551109,202.180662 620.189952,200.095986 C617.588386,196.507829 612.854709,195.051056 609.431595,192.186397 C606.008481,189.321737 603.778567,184.961197 599.768634,182.810258 C596.149914,180.854859 591.729207,181.099284 587.650812,181.76412 C579.657945,183.07957 571.979956,185.871219 565.00936,189.99635 C562.681643,191.374906 560.119198,192.929448 557.439389,192.479707 C555.150793,192.069073 553.468577,190.230998 551.991748,188.480915 C552.010037,188.404654 552.032899,188.329561 552.06021,188.256045 L551.884164,188.050728 C550.192727,191.803917 549.344763,195.882102 549.399962,199.998216 C549.399962,200.633721 549.399962,201.269225 549.478204,201.953615 C549.478204,202.178486 549.478204,202.403357 549.478204,202.628228 C549.492667,202.810445 549.492667,202.993522 549.478204,203.175739 C549.478352,203.460103 549.438851,203.7431 549.36084,204.016561 C549.021198,204.834856 548.511082,205.57144 547.864451,206.177277 C547.376687,206.725384 546.941201,207.317836 546.563668,207.946913 C546.63213,207.731819 546.700592,207.516725 546.778835,207.301631 C545.759761,208.784916 545.186256,210.52859 545.12596,212.327007 C545.038733,213.640676 545.470688,214.936102 546.32894,215.934718 C547.125044,216.716136 547.996469,217.416969 548.930506,218.026995 C546.674836,230.58933 552.491528,243.225596 563.50319,249.684906 C563.689016,250.134648 563.865062,250.594167 564.050888,251.053685 C566.085196,256.431033 567.620707,262.68831 566.984986,268.466514 C566.926304,268.896702 566.867622,269.317113 566.789379,269.737523 C566.583992,269.952617 566.388386,270.177488 566.21234,270.402359 C566.21234,270.402359 539.805463,270.656561 533.634078,265.034789 C527.462693,259.413016 517.985559,278.722582 517.985559,278.722582 C517.985559,278.722582 508.527985,280.560657 506.640382,278.722582 C504.752779,276.884507 493.671671,278.46838 493.671671,278.46838 C493.671671,278.46838 486.913467,271.92757 477.191824,272.455528 C473.499217,269.650167 469.425506,267.385205 465.093563,265.728955 L464.790372,265.621408 C462.888171,264.934524 460.857374,264.677421 458.843935,264.86858 C458.843935,264.86858 445.875224,254.113885 442.100019,248.40412 C438.324814,242.694354 420.299675,221.321843 420.221433,221.224073 L420.15297,220.246373 L419.947584,217.137289 C419.413627,217.221387 418.874328,217.26713 418.33383,217.274167 L417.971958,216.198697 C416.937307,213.165552 415.655028,210.222547 414.138071,207.399401 C414.138071,207.399401 414.138071,203.488603 415.282369,202.510904 C416.426667,201.533204 414.812913,187.151244 414.812913,187.151244 C414.812913,187.151244 403.125425,159.834319 392.660478,180.229131 C392.660478,180.229131 372.874881,193.418298 389.481872,208.777958 C389.481872,208.777958 396.103152,211.994589 397.042063,214.536608 C397.658223,216.18892 399.907698,220.793885 401.423649,223.863862 C401.677937,224.372265 401.902884,224.841561 402.098491,225.232641 L401.912665,225.389073 L402.157173,227.950646 L402.254976,228.928345 C399.125272,230.707758 397.002942,232.45784 397.521299,233.816843 C398.445716,236.080867 399.07995,238.452688 399.408902,240.875833 C399.408902,240.875833 422.373104,269.629977 425.346323,281.939214 C425.346323,281.939214 486.962369,318.534507 507.207641,321.154742 L503.696504,339.4475 C503.696504,339.4475 502.610888,350.427066 502.884737,354.347641 C503.158586,358.268216 500.449436,376.05257 500.449436,376.05257 C500.449436,376.05257 496.9383,402.186479 493.965081,405.843075 C490.991862,409.499671 491.539561,425.191749 491.539561,425.191749 C490.824125,432.701754 489.466213,440.136658 487.480726,447.414859 C484.546628,457.348286 486.678739,469.628192 486.678739,469.628192 C486.678739,469.628192 476.409398,493.16142 500.997135,477.215141 C500.997135,477.215141 513.066055,476.462312 526.963897,475.993016 C526.963897,476.442758 526.963897,476.902277 526.963897,477.371573 C526.963897,479.160763 526.905215,481.096608 526.885654,483.14 C526.699828,496.6127 526.621585,515.179214 527.227966,529.228756 C528.303801,554.062324 535.873773,603.211279 535.873773,603.211279 L535.873773,627.898192 C535.385367,630.219116 535.146025,632.585501 535.159809,634.957183 C534.993333,643.660261 537.303092,652.231601 541.82021,659.673427 L543.492646,675.971678 C543.492646,675.971678 547.932913,686.824143 548.020936,693.306291 C547.999819,693.83553 547.934389,694.36207 547.82533,694.880387 C547.659824,695.71057 547.587653,696.556643 547.610162,697.402852 C547.355874,704.882254 551.864604,722.764378 551.864604,722.764378 C551.864604,722.764378 552.138453,740.802934 554.798701,741.849073 C557.106858,742.738779 551.717899,752.242019 550.104145,754.9698 C550.104145,754.793815 550.035683,754.627606 550.006342,754.45162 C549.800955,754.803592 549.673811,754.999131 549.673811,754.999131 C549.118503,756.454024 548.833464,757.998012 548.832703,759.555211 C548.520278,762.070662 549.685414,764.540974 551.825482,765.900481 C556.960153,769.038897 559.718204,771.649354 555.36596,772.744378 C553.762632,772.988782 552.172877,773.315109 550.602942,773.722077 C550.524699,773.516761 550.446457,773.311444 550.377994,773.115904 C549.127125,773.632229 548.391781,774.936819 548.597975,776.273873 C548.480611,777.593768 548.920726,779.519836 550.211729,782.394272 C554.534632,792.063721 557.527412,795.730094 557.527412,795.730094 L559.60084,795.495446 C559.284815,796.281279 558.88128,797.029041 558.397861,797.724601 C557.608388,798.858729 556.558702,799.787369 555.336619,800.432829 C554.211582,801.111256 552.9544,801.541286 551.649436,801.694061 C548.68363,801.793071 545.899623,803.14728 543.991442,805.419096 C541.301853,808.899707 539.609857,813.651326 544.969475,817.816326 L564.295396,824.484237 C564.295396,824.484237 597.5485,828.795892 595.758701,821.345822 C593.968902,813.895751 592.932187,807.364718 592.932187,807.364718 C592.932187,807.364718 593.30384,800.090634 590.232818,794.146221 C589.8892,793.467029 589.496967,792.81353 589.059179,792.190822 L590.232818,792.053944 C590.232818,792.053944 592.658338,775.589484 595.905406,772.499953 C596.648711,771.776455 596.814976,771.219167 596.63893,770.798756 C596.981242,769.899272 596.130353,769.371315 595.044737,769.078005 L594.81001,769.723286 C593.7495,769.491958 592.667927,769.370732 591.582502,769.361538 C591.582502,769.361538 590.496886,760.738228 594.008023,757.629143 C594.586101,756.909358 594.834579,755.979659 594.692646,755.06757 C594.722276,753.886949 594.600664,752.707391 594.330774,751.557629 C594.330774,751.616291 594.252531,751.694507 594.203629,751.753169 C592.433391,743.931573 586.447832,731.485458 586.447832,731.485458 C586.447832,731.485458 586.173983,723.663862 588.335435,720.515669 C590.496886,717.367477 588.071366,677.897746 588.071366,677.897746 C588.071366,677.897746 588.883133,658.822829 586.447832,649.93554 C584.012531,641.048251 589.381929,630.586866 589.381929,630.586866 C589.381929,630.586866 589.381929,630.381549 589.323247,630.0198 L589.39171,629.882923 C589.39171,629.882923 589.274346,628.709683 589.078739,626.881385 C589.051714,626.938324 589.028834,626.997139 589.010277,627.057371 C588.472359,622.012441 587.435645,612.861174 586.68256,608.627735 C585.596944,602.614883 586.946628,573.860739 586.946628,573.860739 L591.836791,561.580833 L600.482598,582.748028 L609.676103,610.983991 C609.676103,610.983991 614.223954,616.947958 614.331538,622.990141 C614.331538,623.283451 614.331538,623.576761 614.272856,623.87007 C614.199406,624.496351 614.16348,625.126463 614.165272,625.757031 C614.003413,629.322602 614.983278,632.846861 616.962445,635.817559 C616.962445,635.817559 619.397746,649.143603 623.182732,652.545998 C626.967717,655.948392 626.957937,662.479425 626.957937,662.479425 C626.957937,662.479425 631.55469,681.818322 633.716141,685.220716 C635.535282,688.085376 635.672206,695.975411 635.613524,698.370775 C635.613524,698.820516 635.613524,699.074718 635.613524,699.074718 C635.613524,699.074718 636.249245,705.987054 636.229685,711.784812 C636.229685,712.498533 636.229685,713.1927 636.161223,713.847758 L636.161223,713.701103 C636.154706,715.284762 635.967674,716.86252 635.603744,718.403838 C635.571867,718.490009 635.545729,718.578195 635.525501,718.667817 C635.525501,718.345176 635.525501,718.012758 635.603744,717.690117 C634.662046,721.638106 634.208761,725.686734 634.254059,729.745153 C634.126915,736.696596 635.232092,744.938603 639.39851,749.768439 C646.694632,758.137547 651.291385,757.091408 651.291385,757.091408 C651.291385,757.091408 647.770468,767.543016 643.467125,769.635293 C643.304771,769.717971 643.150824,769.816201 643.00745,769.928603 C643.00745,769.723286 642.929207,769.527746 642.899866,769.32243 C642.000076,770.104589 641.638204,771.512477 641.638204,773.233228 C641.325234,777.828415 644.22021,785.29804 646.988042,788.729765 C648.009253,789.730587 649.262618,790.462868 650.636103,790.86115 C650.415083,791.012662 650.186588,791.152975 649.95148,791.281561 C649.47111,791.54411 648.974578,791.775963 648.464871,791.975728 C647.767015,792.284669 647.024009,792.479436 646.264298,792.55257 C643.296052,792.620128 640.499838,793.959005 638.586743,796.228721 C635.897154,799.699554 634.205158,804.451174 639.564776,808.616174 L658.890697,815.284085 C658.890697,815.284085 692.085119,819.585962 690.314881,812.135892 Z" id="Shape" fill="url(#linearGradient-7)" fill-rule="nonzero"></path>
            <path d="M563.405387,824.484237 L544.705406,817.816326 C539.541394,813.651326 541.184489,808.899707 543.795836,805.419096 C545.607353,803.163821 548.308341,801.804869 551.199542,801.694061 C552.467347,801.539337 553.685851,801.108834 554.76936,800.432829 C555.949129,799.776473 556.955057,798.847983 557.703457,797.724601 C559.071394,795.560786 559.809663,793.058972 559.835568,790.499401 C559.835568,790.499401 580.37425,784.486549 585.988157,790.499401 C586.990977,791.586382 587.828041,792.815196 588.472359,794.146221 C591.406457,800.090634 591.093486,807.364718 591.093486,807.364718 C591.093486,807.364718 592.139981,813.885974 593.831977,821.345822 C595.523973,828.805669 563.405387,824.484237 563.405387,824.484237 Z" id="Shape" fill="#2D293D" fill-rule="nonzero"></path>
            <path d="M654.919885,815.274308 L636.219904,808.606397 C631.065673,804.441397 632.708768,799.689777 635.310334,796.218944 C637.117664,793.9585 639.821183,792.598276 642.71404,792.493908 C643.455076,792.421763 644.178931,792.226819 644.855931,791.917066 C645.34939,791.716348 645.829593,791.484493 646.293639,791.222899 C651.526113,788.348462 651.389188,781.289472 651.389188,781.289472 C651.389188,781.289472 671.92787,775.27662 677.541777,781.289472 C678.293149,782.101976 678.949408,782.997465 679.497841,783.958592 C683.018758,790.039883 682.627545,798.154789 682.627545,798.154789 C682.627545,798.154789 683.67404,804.685822 685.375817,812.135892 C687.077593,819.585962 654.919885,815.274308 654.919885,815.274308 Z" id="Shape" fill="#2D293D" fill-rule="nonzero"></path>
            <path d="M586.017498,790.499401 C587.020318,791.586382 587.857382,792.815196 588.5017,794.146221 L557.732798,797.714824 C559.100735,795.551009 559.839004,793.049195 559.864909,790.489624 C559.864909,790.489624 580.403591,784.496326 586.017498,790.499401 Z" id="Shape" fill="#000000" fill-rule="nonzero" opacity="0.1"></path>
            <path d="M679.507622,783.958592 L679.507622,789.717242 C674.725043,797.5975 651.575014,795.876749 644.855931,791.917066 C645.34939,791.716348 645.829593,791.484493 646.293639,791.222899 C651.526113,788.348462 651.389188,781.289472 651.389188,781.289472 C651.389188,781.289472 671.92787,775.27662 677.541777,781.289472 C678.29657,782.101462 678.956125,782.996972 679.507622,783.958592 Z" id="Shape" fill="#000000" fill-rule="nonzero" opacity="0.1"></path>
            <path d="M683.165463,759.1348 C681.730643,761.635737 680.507116,764.252015 679.507622,766.956397 L679.507622,787.624965 C674.275148,796.248275 647.076065,793.373838 643.418223,788.671103 C639.760382,783.968369 635.838472,771.678685 640.01467,769.586408 C644.190869,767.494131 647.584642,757.042523 647.584642,757.042523 C647.584642,757.042523 643.134594,758.088662 636.0732,749.719554 C629.011805,741.350446 631.104795,722.793709 632.425138,718.354953 C633.745482,713.916197 632.425138,699.006279 632.425138,699.006279 C632.425138,699.006279 632.689207,688.554671 630.596218,685.152277 C628.503228,681.749883 624.111862,662.410986 624.111862,662.410986 C624.111862,662.410986 624.111862,655.879953 620.444241,652.477559 C616.776619,649.075164 614.429341,635.74912 614.429341,635.74912 C612.289128,632.417568 611.366597,628.448927 611.817994,624.515352 C612.60042,617.974542 607.367947,610.915552 607.367947,610.915552 L598.477631,582.689366 L590.115454,561.512394 L585.411117,573.802077 C585.411117,573.802077 584.100554,602.556221 585.147049,608.569073 C586.193543,614.581925 587.758395,630.528204 587.758395,630.528204 C587.758395,630.528204 582.535702,640.979812 584.88298,649.867101 C587.230258,658.75439 586.457612,677.839085 586.457612,677.839085 C586.457612,677.839085 588.80489,717.308815 586.711901,720.44723 C584.618911,723.585646 584.88298,731.426796 584.88298,731.426796 C584.88298,731.426796 595.641337,754.422289 592.208443,757.560704 C588.775549,760.69912 589.851385,769.293099 589.851385,769.293099 C589.851385,769.293099 597.176848,769.293099 594.037364,772.431514 C590.89788,775.56993 588.540821,791.985505 588.540821,791.985505 L556.930812,795.651878 C556.930812,795.651878 553.996714,791.985505 549.849857,782.316056 C545.702999,772.646608 550.632283,773.692746 554.837822,772.646608 C559.043362,771.600469 556.383114,768.990012 551.414709,765.802711 C546.446304,762.615411 549.321719,755.605305 549.321719,755.605305 C549.321719,755.605305 556.901471,742.797441 554.290124,741.751303 C551.678777,740.705164 551.414709,722.666608 551.414709,722.666608 C551.414709,722.666608 546.182235,701.235434 547.502579,695.486561 C548.822923,689.737688 543.267698,675.971678 543.267698,675.971678 L541.438777,659.497441 C532.020325,643.29696 535.687947,628.396819 535.687947,628.396819 L535.687947,603.074401 C535.687947,603.074401 528.362483,553.935223 527.315989,529.101655 C526.650926,513.194484 526.836753,491.489554 527.05192,477.948415 C527.179064,470.35169 527.315989,465.316538 527.315989,465.316538 L640.278739,453.584143 C640.278739,453.584143 640.161375,458.795282 642.332607,470.361467 C643.476905,476.560082 645.266705,484.586995 648.12256,494.627969 C656.230449,523.382113 651.262044,544.813286 651.262044,544.813286 L650.215549,581.134824 C650.215549,581.134824 660.152359,605.450211 658.039809,613.809542 C656.785759,618.771796 656.08384,623.857338 655.946819,628.973662 C655.946819,628.973662 678.197058,682.023638 675.84,697.481068 C673.482942,712.938498 683.165463,737.214777 683.165463,737.214777 C683.165463,737.214777 685.77681,754.422289 683.165463,759.1348 Z" id="Shape" fill="#575988" fill-rule="nonzero"></path>
            <path d="M618.576199,622.941256 L652.96382,618.365622 C652.96382,618.365622 633.481414,638.232477 618.576199,622.941256 Z" id="Shape" fill="#000000" fill-rule="nonzero" opacity="0.05"></path>
            <path d="M647.995415,584.781643 C647.995415,584.781643 649.169054,596.934448 641.716447,601.510082 C641.716447,601.510082 655.05681,599.417805 647.995415,584.781643 Z" id="Shape" fill="#000000" fill-rule="nonzero" opacity="0.1"></path>
            <path d="M645.882865,546.094073 C645.882865,546.094073 617.138491,569.744624 606.683324,567.789225 C596.228157,565.833826 645.882865,546.094073 645.882865,546.094073 Z" id="Shape" fill="#000000" fill-rule="nonzero" opacity="0.1"></path>
            <path d="M575.953543,634.0577 C575.953543,634.0577 554.123859,639.014636 553.458797,647.745493 C552.793734,656.47635 575.953543,634.0577 575.953543,634.0577 Z" id="Shape" fill="#000000" fill-rule="nonzero" opacity="0.1"></path>
            <path d="M580.755683,743.051643 C580.755683,743.051643 549.898758,748.810293 558.661929,752.730869 C567.4251,756.651444 581.802178,759.780082 581.802178,759.780082 C581.802178,759.780082 591.738988,760.30804 580.755683,743.051643 Z" id="Shape" fill="#000000" fill-rule="nonzero" opacity="0.05"></path>
            <g id="Group" opacity="0.05" transform="translate(526.181471, 464.407277)" fill="#000000" fill-rule="nonzero">
                <path d="M26.2503916,294.541761 C24.6760465,293.561086 23.6353217,291.915933 23.4238777,290.073674 L23.1109074,290.621185 C23.1109074,290.621185 20.2354919,297.680176 25.2038968,300.818592 L26.8176504,301.874507 C27.7272206,301.708298 28.7150334,301.581197 29.6735053,301.336772 C33.8790449,300.290634 31.2187966,297.680176 26.2503916,294.541761 Z" id="Shape"></path>
                <path d="M65.9976313,292.449484 C66.8387393,291.667324 66.8093983,289.66304 66.2910411,287.081913 C64.902235,289.105751 64.5697039,292.253944 64.5403629,294.649308 C64.8633837,293.820408 65.3602891,293.070303 65.9976313,292.449484 Z" id="Shape"></path>
                <path d="M61.2443935,162.405669 C60.1015262,165.495448 59.4002188,168.730897 59.1611843,172.016455 C59.7502667,169.747431 60.5491734,167.538093 61.5475836,165.416984 C61.5475836,165.416984 61.4302197,164.233967 61.2443935,162.405669 Z" id="Shape"></path>
                <path d="M131.887679,148.678768 C132.101798,147.742826 132.197092,146.783644 132.171309,145.823885 C131.789876,147.779284 131.516027,149.588028 131.32042,151.171901 C131.486686,150.360411 131.672512,149.529366 131.887679,148.678768 Z" id="Shape"></path>
                <path d="M60.5010888,255.336009 C60.9314231,254.690728 61.1661509,252.539789 61.2835148,249.528474 C60.3054823,251.434988 59.904489,254.514742 59.7773448,256.861221 C59.9573009,256.325951 60.2002525,255.813957 60.5010888,255.336009 Z" id="Shape"></path>
                <path d="M66.9854441,304.63162 C64.8337727,310.497817 63.3765043,320.685446 63.3765043,320.685446 L31.7567144,324.342042 C31.7567144,324.342042 28.822617,320.685446 24.6757593,311.015998 C24.3138873,310.165399 24.0204776,309.402793 23.7857498,308.708627 C21.8883668,309.578779 21.1450621,311.543955 23.6292646,317.283052 C27.8152436,326.9525 30.7102197,330.618873 30.7102197,330.618873 L62.3300096,326.932946 C62.3300096,326.932946 64.6870678,310.468486 67.8265521,307.378955 C69.3718434,305.814636 68.3840306,305.0227 66.9854441,304.63162 Z" id="Shape"></path>
                <path d="M25.2038968,257.682488 C25.2038968,257.682488 25.4679656,275.721045 28.0793123,276.767183 C29.3996562,273.7852 30.2798854,270.900986 29.0573448,270.480575 C26.4459981,269.444214 26.1819293,251.405657 26.1819293,251.405657 C26.1819293,251.405657 20.9494556,229.964707 22.2697994,224.215833 C23.5901433,218.46696 18.0838204,204.612958 18.0838204,204.612958 L16.2548997,188.148498 C6.83644699,171.938239 10.5040688,157.038099 10.5040688,157.038099 L10.5040688,131.696127 C10.5040688,131.696127 3.17860554,82.5471714 2.13211079,57.7136033 C1.46704871,41.8162089 1.65287488,20.1112793 1.86804202,6.57014085 C1.86804202,4.11611502 1.95606495,1.94562207 1.99518625,0.117323944 L1.08561605,0.205316901 C1.08561605,0.205316901 0.9486915,5.24046948 0.821547278,12.8371948 C0.606380134,26.3783333 0.420553964,48.0343779 1.08561605,63.9904343 C2.13211079,88.8240023 9.45757402,137.963181 9.45757402,137.963181 L9.45757402,163.324707 C9.45757402,163.324707 5.78995224,178.224847 15.208405,194.425329 L17.0373257,210.899566 C17.0373257,210.899566 22.5240879,224.753568 21.2233047,230.453556 C19.9225215,236.153545 25.2038968,257.682488 25.2038968,257.682488 Z" id="Shape"></path>
                <path d="M118.293028,317.283052 C115.723514,313.566492 114.013042,309.325165 113.285501,304.866268 C110.057994,307.799366 113.764737,319.091796 117.197631,323.559883 C120.855473,328.262617 148.054556,331.137054 153.28703,322.513744 L153.28703,317.537254 C146.264756,324.547359 121.755263,321.731585 118.293028,317.283052 Z" id="Shape"></path>
                <path d="M158.040267,287.746749 C156.600255,290.246404 155.373379,292.862848 154.372646,295.568345 L154.372646,299.234718 C154.969245,297.89527 155.820134,296.10608 156.993773,294.004026 C157.746858,292.645023 158.059828,290.24966 158.138071,287.521878 C158.098949,287.609871 158.069608,287.688087 158.040267,287.746749 Z" id="Shape"></path>
                <path d="M119.897001,291.862864 C120.897156,289.854165 121.759806,287.779937 122.479007,285.654472 C122.479007,285.654472 118.028959,286.70061 110.967564,278.341279 C105.832894,272.250211 105.539484,260.742688 106.273009,253.243732 C104.952665,257.692265 102.869456,276.249002 109.92107,284.608333 C114.556944,290.083451 118.028959,291.520669 119.897001,291.862864 Z" id="Shape"></path>
                <path d="M106.263228,233.895059 C106.723677,239.046945 106.896731,244.220469 106.781585,249.391596 C106.915617,248.573988 107.095203,247.764497 107.319503,246.966901 C108.639847,242.528146 107.319503,227.628005 107.319503,227.628005 C107.319503,227.628005 107.583572,217.16662 105.490583,213.774002 C103.397593,210.381385 98.9084241,191.032711 98.9084241,191.032711 C98.9084241,191.032711 98.9084241,184.491901 95.2505826,181.099284 C91.5927412,177.706667 89.2356829,164.370845 89.2356829,164.370845 C87.0962567,161.035324 86.1738858,157.063918 86.6243362,153.1273 C87.4067622,146.596268 82.1742884,139.537277 82.1742884,139.537277 L73.2839733,111.301315 L64.9217956,90.1341197 L60.2076791,102.414026 C60.2076791,102.414026 60.1392168,103.958791 60.0511939,106.383486 L63.8753009,96.4011737 L72.2374785,117.578146 L81.1277937,145.804331 C81.1277937,145.804331 86.3602674,152.863322 85.5778415,159.404131 C85.126444,163.337706 86.0489751,167.306348 88.1891882,170.637899 C88.1891882,170.637899 90.5462464,183.973721 94.2040879,187.366338 C97.8619293,190.758955 97.9303916,197.299765 97.9303916,197.299765 C97.9303916,197.299765 102.380439,216.648439 104.473429,220.041056 C106.566418,223.433674 106.263228,233.895059 106.263228,233.895059 Z" id="Shape"></path>
            </g>
            <path d="M654.430869,217.430599 L652.474804,226.972946 L652.592168,231.216162 L652.670411,234.354577 L641.716447,235.430047 L640.493906,233.171561 C638.234651,229.084777 633.549876,220.764554 632.024145,219.483768 C630.009398,217.78257 626.410239,191.247805 630.733142,192.821901 C633.367056,193.840706 635.530558,195.797991 636.806724,198.316573 C636.806724,198.316573 658.264756,200.809707 654.430869,217.430599 Z" id="Shape" fill="#FFCDD3" fill-rule="nonzero"></path>
            <path d="M652.631289,234.305692 L641.716447,235.430047 L640.493906,233.171561 C642.058758,231.558357 646.528367,227.891984 652.543266,231.216162 L652.631289,234.305692 Z" id="Shape" fill="#000000" fill-rule="nonzero" opacity="0.1"></path>
            <path d="M655.408902,239.467946 L641.002483,242.850786 L640.699293,240.699847 L639.887526,234.941197 C639.887526,234.941197 645.569895,227.354249 653.814709,233.034683 L654.528672,235.967782 L655.408902,239.467946 Z" id="Shape" fill="#DCE6F2" fill-rule="nonzero"></path>
            <path d="M422.324202,218.408298 L406.988653,226.660082 C406.988653,226.660082 406.401834,225.447735 405.599847,223.726984 C404.132798,220.666784 401.961566,216.052042 401.364967,214.39973 C400.455396,211.857711 394.039503,208.650857 394.039503,208.650857 C377.97043,193.291197 397.120306,180.092254 397.120306,180.092254 C407.252722,159.707218 418.558777,187.014366 418.558777,187.014366 C418.558777,187.014366 420.123629,201.406103 419.018453,202.374026 C417.913276,203.341948 417.913276,207.262523 417.913276,207.262523 C419.379907,210.09165 420.616225,213.034261 421.610239,216.061819 C422.069914,217.528369 422.324202,218.408298 422.324202,218.408298 Z" id="Shape" fill="#FFCDD3" fill-rule="nonzero"></path>
            <path d="M422.324202,218.408298 L406.988653,226.660082 C406.988653,226.660082 406.401834,225.447735 405.599847,223.726984 C407.761299,221.918239 415.448634,215.690293 417.971958,215.973826 C419.178823,216.12336 420.397552,216.152836 421.610239,216.061819 C422.069914,217.528369 422.324202,218.408298 422.324202,218.408298 Z" id="Shape" fill="#000000" fill-rule="nonzero" opacity="0.1"></path>
            <path d="M423.898835,223.062148 L406.636562,231.568134 L406.29425,227.852876 L406.010621,225.252195 C406.010621,225.252195 416.006113,216.687547 418.959771,217.019965 C420.454608,217.240182 421.973663,217.240182 423.4685,217.019965 L423.664107,220.129049 L423.898835,223.062148 Z" id="Shape" fill="#DCE6F2" fill-rule="nonzero"></path>
            <path d="M612.561299,280.775751 C612.561299,280.775751 537.31148,289.262183 551.375587,284.686549 C561.155912,281.499249 565.068042,275.271303 565.870029,268.368744 C566.535091,262.59054 565.048481,256.34304 563.072856,250.965692 C561.295743,246.219721 559.04123,241.666367 556.343992,237.375669 C556.343992,237.375669 613.871862,205.737312 602.311519,234.44257 C600.538376,238.793448 599.440107,243.389441 599.05467,248.071702 C598.702642,252.72168 599.20313,257.396833 600.5315,261.867042 C602.710234,269.162968 606.875269,275.709663 612.561299,280.775751 Z" id="Shape" fill="#FFCDD3" fill-rule="nonzero"></path>
            <path d="M602.36042,234.501232 C600.587277,238.852109 599.489008,243.448103 599.103572,248.130364 C593.685272,252.676667 587.738835,252.383357 580.110181,252.383357 C574.241987,252.383357 567.757631,253.801021 563.072856,250.975469 C561.295743,246.229498 559.04123,241.676144 556.343992,237.385446 C556.343992,237.385446 613.871862,205.747089 602.36042,234.501232 Z" id="Shape" fill="#000000" fill-rule="nonzero" opacity="0.1"></path>
            <ellipse id="Oval" fill="#FFCDD3" fill-rule="nonzero" cx="579.093028" cy="223.267465" rx="31.1209933" ry="31.1103991"></ellipse>
            <path d="M612.561299,280.775751 C612.561299,280.775751 537.31148,289.262183 551.375587,284.686549 C561.155912,281.499249 565.068042,275.271303 565.870029,268.368744 C569.615893,264.321068 577.146743,261.387969 581.978223,259.833427 C586.408855,258.342255 591.193438,258.263678 595.670678,259.608556 C597.427194,260.132029 599.09773,260.909371 600.629303,261.915927 C602.788863,269.18306 606.918702,275.710722 612.561299,280.775751 Z" id="Shape" fill="#000000" fill-rule="nonzero" opacity="0.1"></path>
            <path d="M655.408902,239.467946 L641.002483,242.850786 L640.699293,240.699847 C644.758128,235.51804 649.873238,234.892312 654.528672,235.977559 L655.408902,239.467946 Z" id="Shape" fill="#000000" fill-rule="nonzero" opacity="0.1"></path>
            <path d="M423.898835,223.062148 L406.636562,231.568134 L406.29425,227.852876 C412.465635,224.215833 422.803438,220.471244 423.703228,220.148603 L423.898835,223.062148 Z" id="Shape" fill="#000000" fill-rule="nonzero" opacity="0.1"></path>
            <path d="M642.332607,470.332136 C613.18724,474.927324 571.708883,480.920622 565.126724,478.916338 C559.669303,477.254249 542.230984,477.430235 527.05192,477.938638 C527.179064,470.341913 527.315989,465.306761 527.315989,465.306761 L640.278739,453.574366 C640.278739,453.574366 640.161375,458.765951 642.332607,470.332136 Z" id="Shape" fill="#000000" fill-rule="nonzero" opacity="0.1"></path>
            <path d="M671.399733,463.488239 C671.399733,463.488239 575.435186,479.962477 565.126724,476.824061 C554.818262,473.685646 501.955606,477.08804 501.955606,477.08804 C478.160076,493.024542 488.096886,469.501092 488.096886,469.501092 C488.096886,469.501092 486.003897,457.221185 488.879312,447.287758 C490.797354,440.001273 492.105907,432.567954 492.791442,425.064648 C492.791442,425.064648 492.273085,409.421455 495.1485,405.725751 C498.023916,402.030047 501.417689,375.925469 501.417689,375.925469 C501.417689,375.925469 504.038816,358.150892 503.774747,354.230317 C503.510678,350.309742 504.557173,339.330176 504.557173,339.330176 L507.970506,321.066749 C488.409857,318.456291 428.749876,281.860998 428.749876,281.860998 C425.87446,269.571315 403.643782,240.797617 403.643782,240.797617 C403.320544,238.379617 402.70646,236.009471 401.814862,233.738627 C400.240229,229.554073 423.781471,221.194742 423.781471,221.194742 C423.781471,221.194742 441.298032,242.625915 444.955874,248.374789 C448.613715,254.123662 461.171652,264.849026 461.171652,264.849026 C463.121088,264.648673 465.090387,264.90647 466.922483,265.601854 C467.030067,265.601854 467.11809,265.660516 467.225673,265.689847 C467.333257,265.719178 467.225673,265.689847 467.225673,265.689847 C473.093868,267.733239 478.962063,272.406643 478.962063,272.406643 C488.380516,271.888462 494.913773,278.419495 494.913773,278.419495 C494.913773,278.419495 505.67213,276.855176 507.461929,278.683474 C509.251729,280.511772 518.445234,278.683474 518.445234,278.683474 C518.445234,278.683474 527.599618,259.3348 533.614518,264.995681 C539.629417,270.656561 565.146285,270.353474 565.146285,270.353474 C568.549838,265.836502 576.823992,262.600317 581.997784,260.928451 C586.428416,259.437278 591.212999,259.358701 595.690239,260.70358 C597.620184,261.253163 599.440198,262.133088 601.069417,263.304261 L616.551671,278.458603 C616.551671,278.458603 621.001719,272.70973 620.463801,271.399613 C619.925883,270.089495 625.696275,269.053134 625.696275,269.053134 C625.696275,269.053134 633.276027,266.696878 636.151442,265.914718 C639.026858,265.132559 641.667545,268.241643 641.902273,268.515399 C641.80447,268.182981 639.838625,261.857265 640.60149,257.02743 C641.364355,252.197594 637.462006,247.612183 637.462006,247.612183 C646.61639,225.125094 667.272436,243.955587 667.272436,243.955587 C667.272436,243.955587 669.629494,256.24527 667.536504,260.948005 C665.443515,265.650739 669.629494,275.613498 669.101356,278.194624 C668.573219,280.775751 670.147851,285.253615 670.147851,290.220329 C670.147851,295.187042 667.536504,304.602289 665.961872,308.79662 C664.38724,312.990951 651.790181,322.337758 651.790181,322.337758 C651.790181,322.337758 650.997975,337.237899 645.511213,345.861209 C640.024451,354.484519 643.418223,383.991491 643.418223,383.991491 C643.418223,383.991491 648.650697,406.996761 655.154613,414.300176 C661.658529,421.603592 671.399733,463.488239 671.399733,463.488239 Z" id="Shape" fill="#656691" fill-rule="nonzero"></path>
            <path d="M531.501968,291.491338 C531.501968,291.491338 528.626552,282.868028 526.015205,282.076092 C523.411091,281.119159 520.875353,279.985653 518.425673,278.683474 L520.107889,275.466843 C520.107889,275.466843 529.937116,278.155516 531.501968,281.029953 C533.066819,283.90439 531.501968,291.491338 531.501968,291.491338 Z" id="Shape" fill="#000000" fill-rule="nonzero" opacity="0.1"></path>
            <path d="M478.942502,272.406643 C478.424145,275.026878 455.146972,277.373357 455.146972,277.373357 L466.883362,265.5823 L467.176772,265.68007 C467.176772,265.68007 467.176772,265.68007 467.176772,265.68007 C473.123209,267.733239 478.942502,272.406643 478.942502,272.406643 Z" id="Shape" fill="#000000" fill-rule="nonzero" opacity="0.1"></path>
            <ellipse id="Oval" fill="#575988" fill-rule="nonzero" cx="411.604967" cy="236.52507" rx="2.09298949" ry="2.092277"></ellipse>
            <ellipse id="Oval" fill="#575988" fill-rule="nonzero" cx="414.284776" cy="240.709624" rx="2.09298949" ry="2.092277"></ellipse>
            <ellipse id="Oval" fill="#575988" fill-rule="nonzero" cx="416.905903" cy="244.571538" rx="2.09298949" ry="2.092277"></ellipse>
            <ellipse id="Oval" fill="#575988" fill-rule="nonzero" cx="419.644394" cy="248.746315" rx="2.09298949" ry="2.092277"></ellipse>
            <ellipse id="Oval" fill="#575988" fill-rule="nonzero" cx="666.128138" cy="248.521444" rx="1.7017765" ry="1.70119718"></ellipse>
            <ellipse id="Oval" fill="#575988" fill-rule="nonzero" cx="666.392206" cy="252.37358" rx="1.7017765" ry="1.70119718"></ellipse>
            <ellipse id="Oval" fill="#575988" fill-rule="nonzero" cx="666.626934" cy="256.235493" rx="1.7017765" ry="1.70119718"></ellipse>
            <path d="M531.629112,362.325669 C531.394384,362.022582 590.31106,436.435293 636.09276,393.436068 C636.09276,393.416514 563.7966,403.242394 531.629112,362.325669 Z" id="Shape" fill="#000000" fill-rule="nonzero" opacity="0.1"></path>
            <path d="M497.769628,401.013239 C497.769628,401.013239 533.037479,401.990939 536.734441,412.119906 L536.734441,422.669284 C534.695679,423.809841 532.210606,423.809841 530.171843,422.669284 C526.611805,420.713885 505.290697,409.95919 497.769628,415.131221 L497.769628,401.013239 Z" id="Shape" fill="#000000" fill-rule="nonzero" opacity="0.1"></path>
            <path d="M498.424909,401.013239 C498.424909,401.013239 532.157249,401.932277 535.687947,411.601725 L535.687947,421.662254 C533.736955,422.752203 531.35997,422.752203 529.408978,421.662254 C526.015205,419.833955 505.613448,409.509448 498.424909,414.476162 L498.424909,401.013239 Z" id="Shape" fill="#656691" fill-rule="nonzero"></path>
            <path d="M517.027087,324.449589 C517.027087,324.449589 521.066361,334.832758 530.719542,347.914378 C536.687529,355.918873 543.918338,362.899561 552.128672,368.582946 C552.128672,368.582946 517.613906,329.298979 517.027087,324.449589 Z" id="Shape" fill="#000000" fill-rule="nonzero" opacity="0.1"></path>
            <path d="M505.486304,283.474202 C505.486304,283.474202 511.354499,308.89439 526.533563,317.498146 L505.486304,283.474202 Z" id="Shape" fill="#000000" fill-rule="nonzero" opacity="0.1"></path>
            <path d="M496.459064,286.045552 C496.312359,285.576256 491.236371,306.1275 516.019713,317.498146 C516.009933,317.498146 505.486304,313.929542 496.459064,286.045552 Z" id="Shape" fill="#000000" fill-rule="nonzero" opacity="0.1"></path>
            <path d="M650.518739,269.014026 C650.127526,269.014026 662.744145,277.040939 666.167259,280.746473 C666.167259,280.775751 657.932225,268.486068 650.518739,269.014026 Z" id="Shape" fill="#000000" fill-rule="nonzero" opacity="0.1"></path>
            <path d="M570.681948,251.464319 C571.122063,253.067746 571.659981,254.827606 573.107469,255.668427 C574.02255,256.108127 575.026301,256.332221 576.041566,256.323486 C585.528481,256.910106 595.396829,257.301185 604.179561,253.67392 C605.814553,253.092064 607.282011,252.118568 608.453563,250.838592 C610.008634,248.932077 610.311824,246.341174 610.937765,243.994695 C612.170086,239.350622 614.791213,235.195399 616.688596,230.785974 C619.867689,223.310507 620.933331,215.106172 619.769398,207.066984 C619.524963,204.597427 618.711487,202.218065 617.392779,200.11554 C614.869456,196.527383 610.292264,195.07061 606.957173,192.215728 C603.622082,189.360845 601.489971,184.990528 597.607182,182.839589 C594.105826,180.88419 589.782923,181.128615 585.870793,181.793451 C578.111413,183.116182 570.675796,185.906908 563.962865,190.015904 C561.713391,191.404237 559.238968,192.997887 556.637402,192.509038 C554.368367,192.07885 552.725272,190.172336 551.258223,188.383146 C549.400175,192.646445 548.59833,197.294896 548.920726,201.934061 C549.020434,202.613798 548.997246,203.305909 548.852264,203.977453 C548.530571,204.790388 548.036785,205.524145 547.404776,206.128392 C545.067278,208.846397 543.600229,213.148275 545.918166,215.905387 C546.896199,217.098181 548.470831,217.753239 549.448863,218.965587 C551.209322,221.155634 550.612722,224.294049 550.573601,227.09027 C550.468995,228.061288 550.71152,229.037983 551.258223,229.847383 C552.138453,230.913075 553.742426,231.001068 555.101891,230.76642 C556.461356,230.531772 557.850162,230.072254 559.190067,230.37534 C560.650932,230.861698 561.90514,231.826144 562.750105,233.112899 C567.131691,238.636901 568.843247,244.806185 570.681948,251.464319 Z" id="Shape" fill="#2D293D" fill-rule="nonzero"></path>
            <g id="Group" opacity="0.1" transform="translate(543.786055, 187.718310)" fill="#000000" fill-rule="nonzero">
                <path d="M65.7140019,60.7249178 C64.5424508,62.004894 63.0749924,62.9783907 61.44,63.5602465 C52.6377077,67.2168427 42.7889207,66.7964319 33.3020057,66.2000352 C32.287,66.2167907 31.2821629,65.9958018 30.3679083,65.5547535 C28.9302006,64.7041549 28.4118434,62.9540728 27.9423878,61.3506455 C26.1036867,54.6436268 24.3921299,48.5232277 20.0105444,42.9503404 C19.1655792,41.6635854 17.9113717,40.6991388 16.4505062,40.2127817 C15.1106017,39.9096948 13.7217956,40.3692136 12.3623305,40.6038615 C11.0028653,40.8385094 9.42823305,40.7505164 8.51866285,39.6848239 C7.97195892,38.875424 7.72943432,37.8987288 7.83404011,36.9277113 C7.83404011,34.1314906 8.4599809,30.9832981 6.70930277,28.8030282 C5.7312703,27.5809038 4.18597899,26.9356221 3.16882521,25.7428286 C1.72133715,24.0123005 1.76045845,21.6755986 2.57222541,19.4953286 C0.909570201,22.1351174 0.18582617,25.5277347 2.13211079,27.8253286 C3.11014327,29.0278991 4.68477555,29.6731808 5.66280802,30.8953052 C7.41348615,33.0755751 6.82666667,36.2237676 6.78754537,39.0199883 C6.68293957,39.9910058 6.92546418,40.9677009 7.4721681,41.7771009 C8.35239733,42.8427934 9.95637058,42.9307864 11.3158357,42.6961385 C12.6753009,42.4614906 14.064107,42.0019718 15.4040115,42.3050587 C16.864877,42.7914158 18.1190844,43.7558624 18.9640497,45.0426174 C23.3456351,50.6155047 25.057192,56.7750117 26.895893,63.4429225 C27.3360076,65.0365728 27.8739255,66.7964319 29.3214136,67.6470305 C30.2356681,68.0880788 31.2405053,68.3090677 32.255511,68.2923122 C41.742426,68.8887089 51.6107736,69.2700117 60.3935053,65.6525235 C62.0284977,65.0706677 63.495956,64.097171 64.6675072,62.8171948 C65.2605397,62.0611165 65.7172637,61.2075318 66.017192,60.29473 C65.9193887,60.441385 65.8215855,60.5880399 65.7140019,60.7249178 Z" id="Shape"></path>
                <path d="M5.16401146,15.3987676 C5.59717038,14.9486952 5.93044223,14.4123101 6.14204394,13.8246714 C6.28702583,13.1531272 6.31021447,12.4610161 6.21050621,11.7812793 C5.9527719,7.97091847 6.44794275,4.14710888 7.66777459,0.527957746 L7.50150907,0.322640845 C5.64271696,4.585718 4.84083965,9.23435231 5.16401146,13.8735563 C5.21285726,14.3807877 5.21285726,14.8915363 5.16401146,15.3987676 Z" id="Shape"></path>
            </g>
            <path d="M565.126724,270.314366 C565.126724,270.314366 604.003515,275.466843 607.495091,269.629977" id="Shape" fill="#000000" fill-rule="nonzero" opacity="0.1"></path>
            <path d="M640.738415,254.240986 C640.738415,254.240986 662.333372,254.240986 667.086609,262.355892" id="Shape" fill="#000000" fill-rule="nonzero" opacity="0.1"></path>
        </g>
    </g>
</svg>